<svg width="120" height="55" fill="none" xmlns="http://www.w3.org/2000/svg"><path d="M23.436 0a4.423 4.423 0 0 0-2.541.82 4.865 4.865 0 0 0-1.698 2.175C8.046 3.675-.035 4.816 0 5.708c.033.886 8.055 1.275 19.114.926a4.856 4.856 0 0 0 2.085 2.592h-1.795v3.505h-2.196a.992.992 0 0 0-.402.085 1.048 1.048 0 0 0-.34.242 1.125 1.125 0 0 0-.228.363c-.053.135-.08.28-.08.428v2.498c0 .617.47 1.117 1.049 1.117h14.78c3.723.934 4.139 2.356 6.928 4.96-.456 2.702-1.128 5.652-1.654 8.2v21.7c0 .71.265 1.39.736 1.892.47.502 1.11.784 1.775.784.666 0 1.305-.282 1.776-.784.47-.501.735-1.182.735-1.891V41.832c-.057-8.821 1.28-12.388 5.886-19.217l1.158-.573c0 5.301 3.44 5.62 8.29 6.802h-3.643c-1.11 0-2.01.959-2.01 2.141V43.77c0 1.182.9 2.14 2.01 2.14h12.052c1.11 0 2.01-.958 2.01-2.14V30.985c0-1.182-.9-2.14-2.01-2.14h-3.64c4.85-1.186 8.287-1.503 8.287-6.803l1.158.573c5.828 6.426 5.886 10.8 5.886 19.216v10.492c0 .71.264 1.39.735 1.892s1.11.784 1.776.784c.666 0 1.304-.282 1.775-.784.471-.502.736-1.182.736-1.892V30.626c-.616-2.801-1.275-5.737-1.896-8.645 2.639-2.755 3.72-3.375 7.147-4.516h14.803c.278 0 .545-.118.742-.327.196-.21.307-.494.307-.79v-2.498c0-.297-.111-.581-.307-.79a1.019 1.019 0 0 0-.742-.328h-2.197V9.226h-1.795a4.85 4.85 0 0 0 2.085-2.592c11.06.35 19.081-.04 19.114-.926.035-.892-8.047-2.032-19.196-2.713A4.877 4.877 0 0 0 99.183.877a4.437 4.437 0 0 0-2.431-.871 4.397 4.397 0 0 0-2.493.643 4.798 4.798 0 0 0-1.787 1.96c-11.168-.361-19.324.023-19.37.916-.035.886 7.938 2.02 18.992 2.7.162.631.44 1.222.82 1.737.379.515.85.945 1.387 1.264h-1.796v3.505C81.185 12.703 72.422 6.641 60 6.392c-12.004.271-22.056 6.34-32.505 6.34V9.225h-1.796a4.716 4.716 0 0 0 1.387-1.264 5.057 5.057 0 0 0 .82-1.737c11.054-.68 19.027-1.815 18.992-2.7-.046-.893-8.202-1.279-19.37-.916A4.807 4.807 0 0 0 25.822.7a4.41 4.41 0 0 0-2.386-.698V0zM60 31.979c2.816 0 5.131 2.466 5.131 5.467 0 3-2.315 5.468-5.131 5.468-2.816 0-5.134-2.468-5.134-5.468s2.316-5.467 5.134-5.467zm0 3.209c-1.188 0-2.12.992-2.12 2.258 0 1.265.932 2.258 2.12 2.258 1.188 0 2.118-.993 2.118-2.258 0-1.266-.93-2.258-2.118-2.258z" fill="#0E0D0F"/></svg>