<svg width="80" height="44" viewBox="0 0 80 44" fill="none" xmlns="http://www.w3.org/2000/svg">
<path d="M15.624 7C15.0212 7.00172 14.4322 7.17807 13.9298 7.50721C13.4274 7.83635 13.0338 8.30383 12.7977 8.85177C5.36486 9.27144 -0.0231253 9.97721 7.46339e-05 10.5289C0.0216746 11.0766 5.36967 11.3168 12.7425 11.1011C12.9985 11.7823 13.4913 12.3498 14.1328 12.7031H12.9361V14.8702H11.4721C11.3802 14.8701 11.2892 14.8879 11.2042 14.9226C11.1193 14.9572 11.0421 15.0081 10.9771 15.0722C10.9121 15.1364 10.8605 15.2126 10.8254 15.2964C10.7902 15.3803 10.7721 15.4702 10.7721 15.561V17.1053C10.7721 17.487 11.0849 17.796 11.4713 17.796H21.324C23.8064 18.373 24.084 19.2526 25.9432 20.8625C25.6392 22.5325 25.1912 24.3558 24.8408 25.9318V39.3462C24.8408 39.7848 25.0172 40.2055 25.3311 40.5156C25.6451 40.8258 26.0709 41 26.5148 41C26.9588 41 27.3846 40.8258 27.6985 40.5156C28.0125 40.2055 28.1888 39.7848 28.1888 39.3462V32.8599C28.1504 27.4066 29.0416 25.2015 32.1128 20.9803L32.8848 20.6262C32.8848 23.903 35.1776 24.0998 38.4112 24.8308H35.9824C35.2432 24.8308 34.6432 25.4236 34.6432 26.1547V34.0581C34.6432 34.7883 35.2432 35.3811 35.9824 35.3811H44.0176C44.7568 35.3811 45.3568 34.7883 45.3568 34.0581V26.1547C45.3568 25.4236 44.7568 24.8316 44.0176 24.8316H41.5912C44.824 24.0982 47.1152 23.9022 47.1152 20.6262L47.8872 20.9803C51.7728 24.9526 51.8112 27.6563 51.8112 32.8591V39.3454C51.8112 39.784 51.9875 40.2047 52.3015 40.5148C52.6154 40.825 53.0412 40.9992 53.4852 40.9992C53.9291 40.9992 54.3549 40.825 54.6689 40.5148C54.9828 40.2047 55.1592 39.784 55.1592 39.3454V25.9318C54.7488 24.2002 54.3096 22.3855 53.8952 20.5875C55.6544 18.8843 56.376 18.501 58.66 17.796H68.5287C68.7142 17.796 68.892 17.7233 69.0232 17.5937C69.1543 17.4642 69.2279 17.2885 69.2279 17.1053V15.561C69.2279 15.3778 69.1543 15.2021 69.0232 15.0725C68.892 14.943 68.7142 14.8702 68.5287 14.8702H67.064V12.7031H65.8672C66.5091 12.3499 67.0022 11.7818 67.2575 11.1011C74.6303 11.3168 79.9783 11.0766 79.9999 10.5289C80.0231 9.97721 74.6351 9.27223 67.2023 8.85177C66.9745 8.32335 66.5999 7.8694 66.1219 7.54237C65.644 7.21533 65.0821 7.02854 64.5013 7.00358C63.9204 6.97862 63.3443 7.11651 62.8394 7.40131C62.3345 7.68611 61.9214 8.10621 61.648 8.61308C54.2024 8.38942 48.7656 8.62731 48.7344 9.17897C48.7112 9.72667 54.0264 10.4277 61.396 10.8482C61.5041 11.2384 61.6899 11.6035 61.9425 11.922C62.1951 12.2405 62.5095 12.506 62.8672 12.7031H61.6704V14.8702C54.1232 14.8528 48.2816 11.1058 40 10.9517C31.9976 11.1192 25.296 14.8702 18.3296 14.8702V12.7031H17.1328C17.4905 12.506 17.8049 12.2405 18.0575 11.922C18.3101 11.6035 18.4959 11.2384 18.604 10.8482C25.9736 10.4277 31.2888 9.72588 31.2656 9.17897C31.2344 8.62731 25.7976 8.38863 18.352 8.61308C18.0886 8.12479 17.6954 7.71667 17.2147 7.4326C16.7341 7.14853 16.1841 6.99924 15.624 7.00079V7ZM40 26.7688C41.8776 26.7688 43.4208 28.2933 43.4208 30.1482C43.4208 32.0032 41.8776 33.5285 40 33.5285C38.1224 33.5285 36.5776 32.0032 36.5776 30.1482C36.5776 28.2933 38.1216 26.7688 40 26.7688ZM40 28.7525C39.208 28.7525 38.5864 29.3658 38.5864 30.1482C38.5864 30.9307 39.208 31.544 40 31.544C40.792 31.544 41.412 30.9307 41.412 30.1482C41.412 29.3658 40.792 28.7525 40 28.7525Z" fill="#0E0D0F"/>
</svg>
