<svg width="320" height="400" fill="none" xmlns="http://www.w3.org/2000/svg"><g opacity=".1" fill="#710C0C"><path d="M319.809 79.952h-79.952V0h79.952v79.952zM159.905 239.857H79.952v-79.953h79.953v79.953zM239.857 159.904h-79.952V79.952h79.952v79.952zM79.952 319.809H0v-79.952h79.952v79.952z"/></g><g opacity=".1"><path d="M319.809 159.906h-79.952V79.953h79.952v79.953z" fill="url(#a)"/><path d="M79.952 399.762H0V319.81h79.952v79.952z" fill="url(#b)"/><path d="M0 159.906h79.952V79.953H0v79.953z" fill="url(#c)"/><path d="M239.857 399.762h79.952V319.81h-79.952v79.952z" fill="url(#d)"/></g><defs><linearGradient id="a" x1="159.905" y1="399.762" x2="159.905" y2="79.954" gradientUnits="userSpaceOnUse"><stop stop-color="#710C0C"/><stop offset="1" stop-color="#710C0C"/></linearGradient><linearGradient id="b" x1="159.905" y1="399.762" x2="159.905" y2="79.954" gradientUnits="userSpaceOnUse"><stop stop-color="#710C0C"/><stop offset="1" stop-color="#710C0C"/></linearGradient><linearGradient id="c" x1="159.905" y1="399.762" x2="159.905" y2="79.954" gradientUnits="userSpaceOnUse"><stop stop-color="#710C0C"/><stop offset="1" stop-color="#710C0C"/></linearGradient><linearGradient id="d" x1="159.905" y1="399.762" x2="159.905" y2="79.954" gradientUnits="userSpaceOnUse"><stop stop-color="#710C0C"/><stop offset="1" stop-color="#710C0C"/></linearGradient></defs></svg>