<svg width="31" height="25" fill="none" xmlns="http://www.w3.org/2000/svg"><path d="M26.01 14.237v9.248a1.2 1.2 0 0 1-.357.867c-.238.244-.52.366-.847.366H17.58V17.32h-4.818v7.398H5.535c-.326 0-.608-.122-.847-.366a1.2 1.2 0 0 1-.357-.867v-9.248c0-.012.003-.032.009-.057a.27.27 0 0 0 .01-.058L15.17 4.99l10.822 9.132a.273.273 0 0 1 .019.115zm4.198-1.329-1.167 1.426a.636.636 0 0 1-.395.212h-.057a.57.57 0 0 1-.395-.135L15.17 3.294 2.148 14.411a.688.688 0 0 1-.452.135.636.636 0 0 1-.395-.212L.134 12.908a.635.635 0 0 1-.132-.453.564.564 0 0 1 .207-.414L13.74.501C14.142.167 14.62 0 15.17 0c.553 0 1.03.167 1.431.5l4.592 3.931V.674c0-.18.056-.327.17-.443a.579.579 0 0 1 .432-.173h3.614c.175 0 .32.058.433.173.112.116.169.263.169.443v7.86l4.121 3.507c.126.103.195.24.207.414a.635.635 0 0 1-.131.453z" fill="#0E0D0F"/></svg>