<svg width="221" height="54" viewBox="0 0 221 54" fill="none" xmlns="http://www.w3.org/2000/svg">
<path d="M11.9954 38.3501C9.92532 38.3501 8.10585 37.8604 6.53698 36.8808C4.96811 35.9013 3.73697 34.5191 2.84359 32.7341C1.97199 30.9491 1.53619 28.8594 1.53619 26.4651C1.53619 24.0707 1.97199 21.9919 2.84359 20.2287C3.73697 18.4438 4.96811 17.0616 6.53698 16.082C8.10585 15.0807 9.92532 14.5801 11.9954 14.5801C13.8039 14.5801 15.4164 14.9719 16.8327 15.7555C18.2708 16.5174 19.4584 17.6058 20.3954 19.0206L18.6304 20.0655C17.8895 18.9553 16.9526 18.0955 15.8195 17.486C14.6864 16.8765 13.4117 16.5718 11.9954 16.5718C10.3611 16.5718 8.91209 16.9745 7.64826 17.7799C6.38444 18.5635 5.39301 19.6954 4.67394 21.1756C3.95487 22.6558 3.59534 24.419 3.59534 26.4651C3.59534 28.5113 3.95487 30.2853 4.67394 31.7872C5.39301 33.2673 6.38444 34.4101 7.64826 35.2156C8.91209 35.9992 10.3611 36.3911 11.9954 36.3911C13.4117 36.3911 14.6864 36.0864 15.8195 35.4768C16.9526 34.8672 17.8895 34.0075 18.6304 32.8974L20.3954 33.9749C19.4584 35.3462 18.2708 36.4237 16.8327 37.2073C15.4164 37.9691 13.8039 38.3501 11.9954 38.3501ZM24.6738 37.9257V15.0698H26.6676V37.9257H24.6738ZM32.2067 37.9257V15.0698H34.2004L47.111 34.334V15.0698H49.1374V37.9257H47.1763L34.2004 18.4656V37.9257H32.2067ZM54.6137 37.9257V15.0698H68.8316V16.9636H56.6074V25.257H67.753V27.2161H56.6074V35.9992H69.2238V37.9257H54.6137ZM73.5415 37.9257V15.0698H75.5352L83.4123 26.8569L91.1913 15.0698H93.2504V37.9257H91.1913V18.5635L83.9679 29.567H82.8567L75.5679 18.5635V37.9257H73.5415ZM96.6328 37.9257L105.817 15.0698H107.582L116.734 37.9257H114.511L111.799 31.0363H101.568L98.8554 37.9257H96.6328ZM102.255 29.1098H111.08L106.7 17.9105L102.255 29.1098ZM122.869 37.9257V16.9636H115.352V15.0698H132.446V16.9636H124.928V37.9257H122.869ZM136.39 37.9257V15.0698H138.383V37.9257H136.39ZM153.172 38.3501C151.102 38.3501 149.283 37.8604 147.714 36.8808C146.145 35.9013 144.914 34.5191 144.021 32.7341C143.149 30.9491 142.713 28.8594 142.713 26.4651C142.713 24.0707 143.149 21.9919 144.021 20.2287C144.914 18.4438 146.145 17.0616 147.714 16.082C149.283 15.0807 151.102 14.5801 153.172 14.5801C154.981 14.5801 156.593 14.9719 158.01 15.7555C159.448 16.5174 160.635 17.6058 161.572 19.0206L159.807 20.0655C159.066 18.9553 158.129 18.0955 156.997 17.486C155.863 16.8765 154.589 16.5718 153.172 16.5718C151.538 16.5718 150.089 16.9745 148.825 17.7799C147.561 18.5635 146.57 19.6954 145.851 21.1756C145.132 22.6558 144.772 24.419 144.772 26.4651C144.772 28.5113 145.132 30.2853 145.851 31.7872C146.57 33.2673 147.561 34.4101 148.825 35.2156C150.089 35.9992 151.538 36.3911 153.172 36.3911C154.589 36.3911 155.863 36.0864 156.997 35.4768C158.129 34.8672 159.066 34.0075 159.807 32.8974L161.572 33.9749C160.635 35.3462 159.448 36.4237 158.01 37.2073C156.593 37.9691 154.981 38.3501 153.172 38.3501Z" fill="#D9D9D9"/>
<path d="M6.53695 36.8807L6.27045 37.3067L6.53695 36.8807ZM2.84356 32.734L2.39162 32.9543L2.3927 32.9565L2.39381 32.9585L2.84356 32.734ZM2.84356 20.2286L2.3938 20.004L2.3927 20.0062L2.84356 20.2286ZM6.53695 16.0819L6.80346 16.5079L6.80557 16.5066L6.80769 16.5052L6.53695 16.0819ZM16.8327 15.7554L16.5891 16.1948L16.5931 16.197L16.5971 16.1992L16.8327 15.7554ZM20.3953 19.0205L20.6517 19.4527L21.1062 19.1836L20.8147 18.7434L20.3953 19.0205ZM18.6304 20.0654L18.212 20.344L18.4765 20.7404L18.8867 20.4975L18.6304 20.0654ZM15.8195 17.4859L16.0579 17.0436L15.8195 17.4859ZM7.64824 17.7798L7.91341 18.2066L7.91605 18.2049L7.91867 18.2033L7.64824 17.7798ZM4.67392 21.1755L5.1263 21.3948L4.67392 21.1755ZM4.67392 31.7871L4.22028 32.0039L4.22153 32.0064L4.67392 31.7871ZM7.64824 35.2155L7.37781 35.639L7.38042 35.6407L7.38306 35.6422L7.64824 35.2155ZM15.8195 35.4767L16.0579 35.919L15.8195 35.4767ZM18.6304 32.8973L18.8926 32.4685L18.4801 32.2169L18.212 32.6187L18.6304 32.8973ZM20.3953 33.9748L20.8107 34.2578L21.1088 33.8215L20.6575 33.546L20.3953 33.9748ZM16.8327 37.2072L17.0711 37.6495L17.0735 37.6483L16.8327 37.2072ZM11.9953 37.8477C10.008 37.8477 8.28316 37.3785 6.80346 36.4547L6.27045 37.3067C7.9285 38.342 9.84258 38.8523 11.9953 38.8523V37.8477ZM6.80346 36.4547C5.31929 35.5282 4.14875 34.2184 3.29333 32.5095L2.39381 32.9585C3.32514 34.8194 4.61687 36.2741 6.27045 37.3067L6.80346 36.4547ZM3.2955 32.5137C2.46359 30.8101 2.03901 28.7985 2.03901 26.465H1.03333C1.03333 28.9204 1.48034 31.0881 2.39162 32.9543L3.2955 32.5137ZM2.03901 26.465C2.03901 24.1312 2.46367 22.1316 3.29444 20.451L2.3927 20.0062C1.48027 21.852 1.03333 24.0099 1.03333 26.465H2.03901ZM3.29333 20.4533C4.14875 18.7442 5.31929 17.4345 6.80346 16.5079L6.27045 15.6559C4.61687 16.6884 3.32514 18.1432 2.39381 20.004L3.29333 20.4533ZM6.80769 16.5052C8.28683 15.5612 10.0101 15.0823 11.9953 15.0823V14.0776C9.84044 14.0776 7.92483 14.6001 6.26622 15.6586L6.80769 16.5052ZM11.9953 15.0823C13.7288 15.0823 15.2557 15.4571 16.5891 16.1948L17.0763 15.316C15.577 14.4864 13.879 14.0776 11.9953 14.0776V15.0823ZM16.5971 16.1992C17.9578 16.92 19.0833 17.9497 19.976 19.2977L20.8147 18.7434C19.8335 17.2616 18.5839 16.1145 17.0683 15.3116L16.5971 16.1992ZM20.139 18.5884L18.374 19.6332L18.8867 20.4975L20.6517 19.4527L20.139 18.5884ZM19.0487 19.7867C18.264 18.6108 17.2662 17.6936 16.0579 17.0436L15.5811 17.9282C16.6388 18.4972 17.515 19.2996 18.212 20.344L19.0487 19.7867ZM16.0579 17.0436C14.8443 16.3909 13.4863 16.0694 11.9953 16.0694V17.074C13.337 17.074 14.5284 17.362 15.5811 17.9282L16.0579 17.0436ZM11.9953 16.0694C10.2742 16.0694 8.72966 16.4948 7.37781 17.3563L7.91867 18.2033C9.09444 17.454 10.4479 17.074 11.9953 17.074V16.0694ZM7.38306 17.353C6.02996 18.192 4.97751 19.4 4.22153 20.9562L5.1263 21.3948C5.80846 19.9906 6.7389 18.9348 7.91341 18.2066L7.38306 17.353ZM4.22153 20.9562C3.46216 22.5193 3.09247 24.3609 3.09247 26.465H4.09816C4.09816 24.4768 4.44754 22.7921 5.1263 21.3948L4.22153 20.9562ZM3.09247 26.465C3.09247 28.5692 3.46226 30.4205 4.22028 32.0039L5.12756 31.5704C4.44744 30.1498 4.09816 28.4529 4.09816 26.465H3.09247ZM4.22153 32.0064C4.97706 33.5616 6.02798 34.7787 7.37781 35.639L7.91867 34.792C6.74086 34.0413 5.80891 32.9729 5.1263 31.5679L4.22153 32.0064ZM7.38306 35.6422C8.73426 36.4801 10.2769 36.8933 11.9953 36.8933V35.8886C10.4452 35.8886 9.08987 35.5181 7.91341 34.7888L7.38306 35.6422ZM11.9953 36.8933C13.4863 36.8933 14.8443 36.5718 16.0579 35.919L15.5811 35.0344C14.5284 35.6005 13.337 35.8886 11.9953 35.8886V36.8933ZM16.0579 35.919C17.2662 35.269 18.264 34.3517 19.0487 33.1758L18.212 32.6187C17.515 33.6631 16.6388 34.4655 15.5811 35.0344L16.0579 35.919ZM18.3681 33.326L20.1331 34.4035L20.6575 33.546L18.8926 32.4685L18.3681 33.326ZM19.98 33.6917C19.0872 34.9982 17.9591 36.0212 16.5919 36.7662L17.0735 37.6483C18.5825 36.826 19.8295 35.694 20.8107 34.2578L19.98 33.6917ZM16.5943 36.7649C15.2599 37.4827 13.7312 37.8477 11.9953 37.8477V38.8523C13.8766 38.8523 15.5728 38.4555 17.0711 37.6495L16.5943 36.7649ZM24.6737 37.9255H24.1709V38.4279H24.6737V37.9255ZM24.6737 15.0697V14.5674H24.1709V15.0697H24.6737ZM26.6676 15.0697H27.1704V14.5674H26.6676V15.0697ZM26.6676 37.9255V38.4279H27.1704V37.9255H26.6676ZM25.1766 37.9255V15.0697H24.1709V37.9255H25.1766ZM24.6737 15.5721H26.6676V14.5674H24.6737V15.5721ZM26.1647 15.0697V37.9255H27.1704V15.0697H26.1647ZM26.6676 37.4232H24.6737V38.4279H26.6676V37.4232ZM32.2066 37.9255H31.7038V38.4279H32.2066V37.9255ZM32.2066 15.0697V14.5674H31.7038V15.0697H32.2066ZM34.2004 15.0697L34.6183 14.7903L34.4689 14.5674H34.2004V15.0697ZM47.1109 34.3339L46.6931 34.6135L47.6138 35.9871V34.3339H47.1109ZM47.1109 15.0697V14.5674H46.6081V15.0697H47.1109ZM49.1374 15.0697H49.6403V14.5674H49.1374V15.0697ZM49.1374 37.9255V38.4279H49.6403V37.9255H49.1374ZM47.1763 37.9255L46.7577 38.2041L46.907 38.4279H47.1763V37.9255ZM34.2004 18.4655L34.6188 18.187L33.6976 16.8052V18.4655H34.2004ZM34.2004 37.9255V38.4279H34.7033V37.9255H34.2004ZM32.7095 37.9255V15.0697H31.7038V37.9255H32.7095ZM32.2066 15.5721H34.2004V14.5674H32.2066V15.5721ZM33.7826 15.3492L46.6931 34.6135L47.5288 34.0544L34.6183 14.7903L33.7826 15.3492ZM47.6138 34.3339V15.0697H46.6081V34.3339H47.6138ZM47.1109 15.5721H49.1374V14.5674H47.1109V15.5721ZM48.6346 15.0697V37.9255H49.6403V15.0697H48.6346ZM49.1374 37.4232H47.1763V38.4279H49.1374V37.4232ZM47.5947 37.647L34.6188 18.187L33.7818 18.7439L46.7577 38.2041L47.5947 37.647ZM33.6976 18.4655V37.9255H34.7033V18.4655H33.6976ZM34.2004 37.4232H32.2066V38.4279H34.2004V37.4232ZM54.6136 37.9255H54.1108V38.4279H54.6136V37.9255ZM54.6136 15.0697V14.5674H54.1108V15.0697H54.6136ZM68.8316 15.0697H69.3344V14.5674H68.8316V15.0697ZM68.8316 16.9635V17.4658H69.3344V16.9635H68.8316ZM56.6074 16.9635V16.4612H56.1046V16.9635H56.6074ZM56.6074 25.2569H56.1046V25.7592H56.6074V25.2569ZM67.753 25.2569H68.2558V24.7546H67.753V25.2569ZM67.753 27.216V27.7183H68.2558V27.216H67.753ZM56.6074 27.216V26.7136H56.1046V27.216H56.6074ZM56.6074 35.9991H56.1046V36.5015H56.6074V35.9991ZM69.2238 35.9991H69.7266V35.4968H69.2238V35.9991ZM69.2238 37.9255V38.4279H69.7266V37.9255H69.2238ZM55.1165 37.9255V15.0697H54.1108V37.9255H55.1165ZM54.6136 15.5721H68.8316V14.5674H54.6136V15.5721ZM68.3287 15.0697V16.9635H69.3344V15.0697H68.3287ZM68.8316 16.4612H56.6074V17.4658H68.8316V16.4612ZM56.1046 16.9635V25.2569H57.1103V16.9635H56.1046ZM56.6074 25.7592H67.753V24.7546H56.6074V25.7592ZM67.2501 25.2569V27.216H68.2558V25.2569H67.2501ZM67.753 26.7136H56.6074V27.7183H67.753V26.7136ZM56.1046 27.216V35.9991H57.1103V27.216H56.1046ZM56.6074 36.5015H69.2238V35.4968H56.6074V36.5015ZM68.7209 35.9991V37.9255H69.7266V35.9991H68.7209ZM69.2238 37.4232H54.6136V38.4279H69.2238V37.4232ZM73.5414 37.9255H73.0386V38.4279H73.5414V37.9255ZM73.5414 15.0697V14.5674H73.0386V15.0697H73.5414ZM75.5352 15.0697L75.9533 14.7908L75.8042 14.5674H75.5352V15.0697ZM83.4123 26.8568L82.9942 27.1356L83.4148 27.7655L83.8322 27.1333L83.4123 26.8568ZM91.1913 15.0697V14.5674H90.9205L90.7714 14.7932L91.1913 15.0697ZM93.2504 15.0697H93.7533V14.5674H93.2504V15.0697ZM93.2504 37.9255V38.4279H93.7533V37.9255H93.2504ZM91.1913 37.9255H90.6884V38.4279H91.1913V37.9255ZM91.1913 18.5634H91.6941V16.8814L90.7709 18.2879L91.1913 18.5634ZM83.9679 29.5668V30.0692H84.2395L84.3883 29.8424L83.9679 29.5668ZM82.8566 29.5668L82.4373 29.8441L82.5864 30.0692H82.8566V29.5668ZM75.5679 18.5634L75.9873 18.2862L75.0651 16.894V18.5634H75.5679ZM75.5679 37.9255V38.4279H76.0708V37.9255H75.5679ZM74.0443 37.9255V15.0697H73.0386V37.9255H74.0443ZM73.5414 15.5721H75.5352V14.5674H73.5414V15.5721ZM75.1171 15.3486L82.9942 27.1356L83.8304 26.578L75.9533 14.7908L75.1171 15.3486ZM83.8322 27.1333L91.6112 15.3462L90.7714 14.7932L82.9924 26.5803L83.8322 27.1333ZM91.1913 15.5721H93.2504V14.5674H91.1913V15.5721ZM92.7476 15.0697V37.9255H93.7533V15.0697H92.7476ZM93.2504 37.4232H91.1913V38.4279H93.2504V37.4232ZM91.6941 37.9255V18.5634H90.6884V37.9255H91.6941ZM90.7709 18.2879L83.5475 29.2913L84.3883 29.8424L91.6117 18.8389L90.7709 18.2879ZM83.9679 29.0645H82.8566V30.0692H83.9679V29.0645ZM83.276 29.2896L75.9873 18.2862L75.1485 18.8406L82.4373 29.8441L83.276 29.2896ZM75.0651 18.5634V37.9255H76.0708V18.5634H75.0651ZM75.5679 37.4232H73.5414V38.4279H75.5679V37.4232ZM96.6328 37.9255L96.1662 37.7384L95.8891 38.4279H96.6328V37.9255ZM105.817 15.0697V14.5674H105.477L105.351 14.8826L105.817 15.0697ZM107.582 15.0697L108.049 14.8832L107.923 14.5674H107.582V15.0697ZM116.734 37.9255V38.4279H117.477L117.201 37.7389L116.734 37.9255ZM114.511 37.9255L114.044 38.1094L114.169 38.4279H114.511V37.9255ZM111.799 31.0361L112.266 30.8523L112.141 30.5338H111.799V31.0361ZM101.568 31.0361V30.5338H101.226L101.1 30.8523L101.568 31.0361ZM98.8554 37.9255V38.4279H99.1978L99.3233 38.1094L98.8554 37.9255ZM102.255 29.1097L101.787 28.9246L101.514 29.6121H102.255V29.1097ZM111.08 29.1097V29.6121H111.816L111.548 28.9269L111.08 29.1097ZM106.7 17.9104L107.168 17.7276L106.703 16.5388L106.232 17.7252L106.7 17.9104ZM97.0994 38.1127L106.284 15.2569L105.351 14.8826L96.1662 37.7384L97.0994 38.1127ZM105.817 15.5721H107.582V14.5674H105.817V15.5721ZM107.115 15.2563L116.267 38.1122L117.201 37.7389L108.049 14.8832L107.115 15.2563ZM116.734 37.4232H114.511V38.4279H116.734V37.4232ZM114.979 37.7417L112.266 30.8523L111.331 31.22L114.044 38.1094L114.979 37.7417ZM111.799 30.5338H101.568V31.5385H111.799V30.5338ZM101.1 30.8523L98.3875 37.7417L99.3233 38.1094L102.036 31.22L101.1 30.8523ZM98.8554 37.4232H96.6328V38.4279H98.8554V37.4232ZM102.255 29.6121H111.08V28.6074H102.255V29.6121ZM111.548 28.9269L107.168 17.7276L106.231 18.0932L110.611 29.2926L111.548 28.9269ZM106.232 17.7252L101.787 28.9246L102.722 29.2948L107.167 18.0955L106.232 17.7252ZM122.869 37.9255H122.366V38.4279H122.869V37.9255ZM122.869 16.9635H123.372V16.4612H122.869V16.9635ZM115.352 16.9635H114.849V17.4658H115.352V16.9635ZM115.352 15.0697V14.5674H114.849V15.0697H115.352ZM132.446 15.0697H132.949V14.5674H132.446V15.0697ZM132.446 16.9635V17.4658H132.949V16.9635H132.446ZM124.928 16.9635V16.4612H124.426V16.9635H124.928ZM124.928 37.9255V38.4279H125.431V37.9255H124.928ZM123.372 37.9255V16.9635H122.366V37.9255H123.372ZM122.869 16.4612H115.352V17.4658H122.869V16.4612ZM115.855 16.9635V15.0697H114.849V16.9635H115.855ZM115.352 15.5721H132.446V14.5674H115.352V15.5721ZM131.943 15.0697V16.9635H132.949V15.0697H131.943ZM132.446 16.4612H124.928V17.4658H132.446V16.4612ZM124.426 16.9635V37.9255H125.431V16.9635H124.426ZM124.928 37.4232H122.869V38.4279H124.928V37.4232ZM136.39 37.9255H135.887V38.4279H136.39V37.9255ZM136.39 15.0697V14.5674H135.887V15.0697H136.39ZM138.383 15.0697H138.886V14.5674H138.383V15.0697ZM138.383 37.9255V38.4279H138.886V37.9255H138.383ZM136.893 37.9255V15.0697H135.887V37.9255H136.893ZM136.39 15.5721H138.383V14.5674H136.39V15.5721ZM137.881 15.0697V37.9255H138.886V15.0697H137.881ZM138.383 37.4232H136.39V38.4279H138.383V37.4232ZM147.714 36.8807L147.447 37.3067L147.714 36.8807ZM144.021 32.734L143.569 32.9543L143.57 32.9565L143.571 32.9585L144.021 32.734ZM144.021 20.2286L143.571 20.004L143.57 20.0062L144.021 20.2286ZM147.714 16.0819L147.98 16.5079L147.982 16.5066L147.985 16.5052L147.714 16.0819ZM158.01 15.7554L157.766 16.1948L157.77 16.197L157.774 16.1992L158.01 15.7554ZM161.572 19.0205L161.829 19.4527L162.283 19.1836L161.992 18.7434L161.572 19.0205ZM159.807 20.0654L159.389 20.344L159.654 20.7404L160.064 20.4975L159.807 20.0654ZM156.996 17.4859L157.235 17.0436L156.996 17.4859ZM148.825 17.7798L149.09 18.2066L149.093 18.2049L149.096 18.2033L148.825 17.7798ZM145.851 21.1755L146.303 21.3948L145.851 21.1755ZM145.851 31.7871L145.397 32.0039L145.398 32.0064L145.851 31.7871ZM148.825 35.2155L148.555 35.639L148.557 35.6407L148.56 35.6422L148.825 35.2155ZM156.996 35.4767L157.235 35.919L156.996 35.4767ZM159.807 32.8973L160.07 32.4685L159.657 32.2169L159.389 32.6187L159.807 32.8973ZM161.572 33.9748L161.988 34.2578L162.286 33.8215L161.835 33.546L161.572 33.9748ZM158.01 37.2072L158.248 37.6495L158.25 37.6483L158.01 37.2072ZM153.172 37.8477C151.185 37.8477 149.46 37.3785 147.98 36.4547L147.447 37.3067C149.105 38.342 151.019 38.8523 153.172 38.8523V37.8477ZM147.98 36.4547C146.496 35.5282 145.326 34.2184 144.47 32.5095L143.571 32.9585C144.502 34.8194 145.794 36.2741 147.447 37.3067L147.98 36.4547ZM144.472 32.5137C143.64 30.8101 143.216 28.7985 143.216 26.465H142.21C142.21 28.9204 142.657 31.0881 143.569 32.9543L144.472 32.5137ZM143.216 26.465C143.216 24.1312 143.641 22.1316 144.471 20.451L143.57 20.0062C142.657 21.852 142.21 24.0099 142.21 26.465H143.216ZM144.47 20.4533C145.326 18.7442 146.496 17.4345 147.98 16.5079L147.447 15.6559C145.794 16.6884 144.502 18.1432 143.571 20.004L144.47 20.4533ZM147.985 16.5052C149.464 15.5612 151.187 15.0823 153.172 15.0823V14.0776C151.017 14.0776 149.102 14.6001 147.443 15.6586L147.985 16.5052ZM153.172 15.0823C154.906 15.0823 156.433 15.4571 157.766 16.1948L158.253 15.316C156.754 14.4864 155.056 14.0776 153.172 14.0776V15.0823ZM157.774 16.1992C159.135 16.92 160.26 17.9497 161.153 19.2977L161.992 18.7434C161.01 17.2616 159.761 16.1145 158.245 15.3116L157.774 16.1992ZM161.316 18.5884L159.551 19.6332L160.064 20.4975L161.829 19.4527L161.316 18.5884ZM160.226 19.7867C159.441 18.6108 158.443 17.6936 157.235 17.0436L156.758 17.9282C157.816 18.4972 158.692 19.2996 159.389 20.344L160.226 19.7867ZM157.235 17.0436C156.021 16.3909 154.663 16.0694 153.172 16.0694V17.074C154.514 17.074 155.705 17.362 156.758 17.9282L157.235 17.0436ZM153.172 16.0694C151.451 16.0694 149.907 16.4948 148.555 17.3563L149.096 18.2033C150.271 17.454 151.625 17.074 153.172 17.074V16.0694ZM148.56 17.353C147.207 18.192 146.154 19.4 145.398 20.9562L146.303 21.3948C146.985 19.9906 147.916 18.9348 149.09 18.2066L148.56 17.353ZM145.398 20.9562C144.639 22.5193 144.269 24.3609 144.269 26.465H145.275C145.275 24.4768 145.624 22.7921 146.303 21.3948L145.398 20.9562ZM144.269 26.465C144.269 28.5692 144.639 30.4205 145.397 32.0039L146.305 31.5704C145.624 30.1498 145.275 28.4529 145.275 26.465H144.269ZM145.398 32.0064C146.154 33.5616 147.205 34.7787 148.555 35.639L149.096 34.792C147.918 34.0413 146.986 32.9729 146.303 31.5679L145.398 32.0064ZM148.56 35.6422C149.911 36.4801 151.454 36.8933 153.172 36.8933V35.8886C151.622 35.8886 150.267 35.5181 149.09 34.7888L148.56 35.6422ZM153.172 36.8933C154.663 36.8933 156.021 36.5718 157.235 35.919L156.758 35.0344C155.705 35.6005 154.514 35.8886 153.172 35.8886V36.8933ZM157.235 35.919C158.443 35.269 159.441 34.3517 160.226 33.1758L159.389 32.6187C158.692 33.6631 157.816 34.4655 156.758 35.0344L157.235 35.919ZM159.545 33.326L161.31 34.4035L161.835 33.546L160.07 32.4685L159.545 33.326ZM161.157 33.6917C160.264 34.9982 159.136 36.0212 157.769 36.7662L158.25 37.6483C159.759 36.826 161.006 35.694 161.988 34.2578L161.157 33.6917ZM157.771 36.7649C156.437 37.4827 154.908 37.8477 153.172 37.8477V38.8523C155.053 38.8523 156.75 38.4555 158.248 37.6495L157.771 36.7649Z" fill="#D9D9D9"/>
<path d="M169.469 25.3673H168.966V25.8697H169.469V25.3673ZM169.469 14.8185V14.3162H168.966V14.8185H169.469ZM176.076 14.8185H176.579V14.3162H176.076V14.8185ZM176.076 15.6925V16.1949H176.579V15.6925H176.076ZM170.389 15.6925V15.1902H169.886V15.6925H170.389ZM170.389 19.5203H169.886V20.0226H170.389V19.5203ZM175.578 19.5203H176.081V19.0179H175.578V19.5203ZM175.578 20.4244V20.9268H176.081V20.4244H175.578ZM170.389 20.4244V19.9221H169.886V20.4244H170.389ZM170.389 25.3673V25.8697H170.892V25.3673H170.389ZM169.971 25.3673V14.8185H168.966V25.3673H169.971ZM169.469 15.3208H176.076V14.3162H169.469V15.3208ZM175.573 14.8185V15.6925H176.579V14.8185H175.573ZM176.076 15.1902H170.389V16.1949H176.076V15.1902ZM169.886 15.6925V19.5203H170.892V15.6925H169.886ZM170.389 20.0226H175.578V19.0179H170.389V20.0226ZM175.075 19.5203V20.4244H176.081V19.5203H175.075ZM175.578 19.9221H170.389V20.9268H175.578V19.9221ZM169.886 20.4244V25.3673H170.892V20.4244H169.886ZM170.389 24.865H169.469V25.8697H170.389V24.865ZM177.777 25.3673H177.274V25.8697H177.777V25.3673ZM177.777 14.8185V14.3162H177.274V14.8185H177.777ZM178.697 14.8185H179.2V14.3162H178.697V14.8185ZM178.697 25.3673V25.8697H179.2V25.3673H178.697ZM178.28 25.3673V14.8185H177.274V25.3673H178.28ZM177.777 15.3208H178.697V14.3162H177.777V15.3208ZM178.195 14.8185V25.3673H179.2V14.8185H178.195ZM178.697 24.865H177.777V25.8697H178.697V24.865ZM181.254 25.3673H180.751V25.8697H181.254V25.3673ZM181.254 14.8185V14.3162H180.751V14.8185H181.254ZM182.174 14.8185H182.677V14.3162H182.174V14.8185ZM182.174 24.4782H181.671V24.9805H182.174V24.4782ZM188.012 24.4782H188.515V23.9759H188.012V24.4782ZM188.012 25.3673V25.8697H188.515V25.3673H188.012ZM181.757 25.3673V14.8185H180.751V25.3673H181.757ZM181.254 15.3208H182.174V14.3162H181.254V15.3208ZM181.671 14.8185V24.4782H182.677V14.8185H181.671ZM182.174 24.9805H188.012V23.9759H182.174V24.9805ZM187.509 24.4782V25.3673H188.515V24.4782H187.509ZM188.012 24.865H181.254V25.8697H188.012V24.865ZM189.71 25.3673H189.207V25.8697H189.71V25.3673ZM189.71 14.8185V14.3162H189.207V14.8185H189.71ZM190.63 14.8185L191.048 14.5396L190.899 14.3162H190.63V14.8185ZM194.266 20.2587L193.847 20.5376L194.268 21.1673L194.686 20.5352L194.266 20.2587ZM197.856 14.8185V14.3162H197.585L197.436 14.542L197.856 14.8185ZM198.806 14.8185H199.309V14.3162H198.806V14.8185ZM198.806 25.3673V25.8697H199.309V25.3673H198.806ZM197.856 25.3673H197.353V25.8697H197.856V25.3673ZM197.856 16.431H198.359V14.749L197.435 16.1555L197.856 16.431ZM194.522 21.5095V22.0118H194.794L194.943 21.7849L194.522 21.5095ZM194.009 21.5095L193.59 21.7867L193.739 22.0118H194.009V21.5095ZM190.645 16.431L191.065 16.1537L190.142 14.7615V16.431H190.645ZM190.645 25.3673V25.8697H191.148V25.3673H190.645ZM190.213 25.3673V14.8185H189.207V25.3673H190.213ZM189.71 15.3208H190.63V14.3162H189.71V15.3208ZM190.212 15.0974L193.847 20.5376L194.684 19.9798L191.048 14.5396L190.212 15.0974ZM194.686 20.5352L198.276 15.095L197.436 14.542L193.846 19.9822L194.686 20.5352ZM197.856 15.3208H198.806V14.3162H197.856V15.3208ZM198.304 14.8185V25.3673H199.309V14.8185H198.304ZM198.806 24.865H197.856V25.8697H198.806V24.865ZM198.359 25.3673V16.431H197.353V25.3673H198.359ZM197.435 16.1555L194.102 21.234L194.943 21.7849L198.276 16.7064L197.435 16.1555ZM194.522 21.0071H194.009V22.0118H194.522V21.0071ZM194.429 21.2323L191.065 16.1537L190.226 16.7082L193.59 21.7867L194.429 21.2323ZM190.142 16.431V25.3673H191.148V16.431H190.142ZM190.645 24.865H189.71V25.8697H190.645V24.865ZM170.721 38.1867L170.518 38.6466L170.521 38.6478L170.524 38.6491L170.721 38.1867ZM169.046 36.8304L168.76 36.4177L168.334 36.7126L168.642 37.1285L169.046 36.8304ZM169.785 36.318L170.17 35.9948L169.875 35.6444L169.499 35.9054L169.785 36.318ZM171.113 37.3578L170.892 37.8089L170.897 37.8114L170.902 37.8139L171.113 37.3578ZM174.235 37.5085L174.069 37.0343L174.068 37.0351L174.066 37.0358L174.235 37.5085ZM175.322 34.7809L174.878 35.018L174.882 35.0243L174.885 35.0301L175.322 34.7809ZM172.395 33.4849L172.302 33.9784L172.304 33.9789L172.306 33.9792L172.395 33.4849ZM169.861 29.0544L170.282 29.3284L170.284 29.3264L170.285 29.3241L169.861 29.0544ZM171.037 28.0297L171.255 28.4825L171.259 28.4807L171.262 28.479L171.037 28.0297ZM174.688 28.0598L174.47 28.5124L174.473 28.5139L174.476 28.5154L174.688 28.0598ZM176.227 29.1147L176.574 29.4781L176.955 29.1149L176.574 28.7517L176.227 29.1147ZM175.563 29.7476L175.232 30.1256L175.578 30.428L175.91 30.111L175.563 29.7476ZM174.296 28.9037L174.071 29.353L174.075 29.355L174.079 29.357L174.296 28.9037ZM171.068 29.0845L171.369 29.4864L171.371 29.4854L171.068 29.0845ZM170.932 31.8724L170.581 32.2329L170.584 32.2351L170.587 32.2376L170.932 31.8724ZM172.878 32.641L172.787 33.135L172.79 33.1355L172.878 32.641ZM176.031 37.2976L175.627 36.9977L175.626 36.9992L176.031 37.2976ZM174.748 38.2771L174.938 38.7422L174.942 38.7407L174.945 38.7392L174.748 38.2771ZM172.923 38.1063C172.178 38.1063 171.512 37.9765 170.917 37.7243L170.524 38.6491C171.257 38.9595 172.059 39.111 172.923 39.111V38.1063ZM170.923 37.7268C170.344 37.4726 169.854 37.0783 169.451 36.5323L168.642 37.1285C169.143 37.8082 169.77 38.318 170.518 38.6466L170.923 37.7268ZM169.333 37.2431L170.072 36.7307L169.499 35.9054L168.76 36.4177L169.333 37.2431ZM169.4 36.6413C169.817 37.1361 170.315 37.5266 170.892 37.8089L171.334 36.9067C170.885 36.6867 170.498 36.3841 170.17 35.9948L169.4 36.6413ZM170.902 37.8139C171.503 38.091 172.186 38.2218 172.938 38.2218V37.2172C172.302 37.2172 171.768 37.1069 171.324 36.9017L170.902 37.8139ZM172.938 38.2218C173.461 38.2218 173.952 38.144 174.405 37.9812L174.066 37.0358C173.735 37.1544 173.361 37.2172 172.938 37.2172V38.2218ZM174.402 37.9827C174.879 37.8157 175.281 37.5512 175.588 37.1808L174.814 36.5403C174.638 36.7525 174.396 36.9201 174.069 37.0343L174.402 37.9827ZM175.588 37.1808C175.915 36.7867 176.066 36.307 176.066 35.7755H175.06C175.06 36.1081 174.97 36.3517 174.814 36.5403L175.588 37.1808ZM176.066 35.7755C176.066 35.3219 175.97 34.9015 175.758 34.5318L174.885 35.0301C174.995 35.223 175.06 35.4656 175.06 35.7755H176.066ZM175.765 34.5438C175.541 34.1264 175.128 33.82 174.629 33.5874L174.204 34.4976C174.61 34.687 174.8 34.8728 174.878 35.018L175.765 34.5438ZM174.629 33.5874C174.117 33.3488 173.393 33.1536 172.484 32.9906L172.306 33.9792C173.187 34.1374 173.811 34.3142 174.204 34.4976L174.629 33.5874ZM172.488 32.9914C171.559 32.8161 170.928 32.5101 170.531 32.1183C170.147 31.7386 169.941 31.2362 169.941 30.5614H168.935C168.935 31.4638 169.222 32.2374 169.824 32.8321C170.413 33.4148 171.26 33.782 172.302 33.9784L172.488 32.9914ZM169.941 30.5614C169.941 30.0749 170.059 29.67 170.282 29.3284L169.439 28.7804C169.099 29.3028 168.935 29.9026 168.935 30.5614H169.941ZM170.285 29.3241C170.513 28.9662 170.831 28.6857 171.255 28.4825L170.82 27.5768C170.238 27.8558 169.772 28.2585 169.437 28.7846L170.285 29.3241ZM171.262 28.479C171.684 28.2685 172.188 28.1552 172.787 28.1552V27.1506C172.059 27.1506 171.397 27.2885 170.813 27.5803L171.262 28.479ZM172.787 28.1552C173.425 28.1552 173.983 28.2778 174.47 28.5124L174.907 27.6072C174.267 27.2993 173.557 27.1506 172.787 27.1506V28.1552ZM174.476 28.5154C174.988 28.7527 175.455 29.0725 175.879 29.4776L176.574 28.7517C176.073 28.2728 175.514 27.8893 174.9 27.6042L174.476 28.5154ZM175.88 28.7512L175.216 29.3842L175.91 30.111L176.574 29.4781L175.88 28.7512ZM175.894 29.3696C175.46 28.9903 175 28.6827 174.512 28.4503L174.079 29.357C174.477 29.5467 174.861 29.8016 175.232 30.1256L175.894 29.3696ZM174.521 28.4544C173.998 28.1934 173.411 28.0698 172.772 28.0698V29.0745C173.28 29.0745 173.709 29.1719 174.071 29.353L174.521 28.4544ZM172.772 28.0698C172.002 28.0698 171.321 28.2635 170.764 28.6837L171.371 29.4854C171.719 29.2224 172.175 29.0745 172.772 29.0745V28.0698ZM170.766 28.6827C170.177 29.1237 169.901 29.7664 169.901 30.5312H170.907C170.907 30.0302 171.073 29.7084 171.369 29.4864L170.766 28.6827ZM169.901 30.5312C169.901 31.2006 170.119 31.7843 170.581 32.2329L171.282 31.512C171.04 31.2774 170.907 30.967 170.907 30.5312H169.901ZM170.587 32.2376C171.059 32.6832 171.83 32.9602 172.787 33.135L172.968 32.147C172.055 31.9802 171.529 31.7448 171.277 31.5072L170.587 32.2376ZM172.79 33.1355C174.056 33.3611 174.878 33.7022 175.337 34.104L176 33.348C175.333 32.7653 174.294 32.3831 172.966 32.1465L172.79 33.1355ZM175.337 34.104C175.774 34.4855 176.011 35.0162 176.011 35.7604H177.016C177.016 34.7766 176.69 33.9511 176 33.348L175.337 34.104ZM176.011 35.7604C176.011 36.2567 175.878 36.6611 175.627 36.9977L176.434 37.5974C176.827 37.07 177.016 36.4496 177.016 35.7604H176.011ZM175.626 36.9992C175.374 37.3405 175.022 37.6145 174.551 37.815L174.945 38.7392C175.56 38.4775 176.064 38.0985 176.435 37.5959L175.626 36.9992ZM174.559 37.8119C174.084 38.0051 173.541 38.1063 172.923 38.1063V39.111C173.652 39.111 174.326 38.9911 174.938 38.7422L174.559 37.8119ZM181.422 38.4278H180.919V38.9301H181.422V38.4278ZM181.422 28.753H181.925V28.2507H181.422V28.753ZM177.953 28.753H177.45V29.2553H177.953V28.753ZM177.953 27.879V27.3766H177.45V27.879H177.953ZM185.842 27.879H186.345V27.3766H185.842V27.879ZM185.842 28.753V29.2553H186.345V28.753H185.842ZM182.373 28.753V28.2507H181.87V28.753H182.373ZM182.373 38.4278V38.9301H182.875V38.4278H182.373ZM181.925 38.4278V28.753H180.919V38.4278H181.925ZM181.422 28.2507H177.953V29.2553H181.422V28.2507ZM178.455 28.753V27.879H177.45V28.753H178.455ZM177.953 28.3813H185.842V27.3766H177.953V28.3813ZM185.339 27.879V28.753H186.345V27.879H185.339ZM185.842 28.2507H182.373V29.2553H185.842V28.2507ZM181.87 28.753V38.4278H182.875V28.753H181.87ZM182.373 37.9255H181.422V38.9301H182.373V37.9255ZM188.492 37.5236L188.116 37.8576L188.119 37.8604L188.121 37.8629L188.492 37.5236ZM187.511 27.879V27.3766H187.008V27.879H187.511ZM188.462 27.879H188.965V27.3766H188.462V27.879ZM189.171 36.8003L188.775 37.1099L188.778 37.1137L188.781 37.1172L189.171 36.8003ZM193.425 36.8003L193.032 36.4866L193.032 36.4873L193.425 36.8003ZM194.149 27.879V27.3766H193.646V27.879H194.149ZM195.084 27.879H195.587V27.3766H195.084V27.879ZM194.104 37.5236L194.477 37.8602L194.479 37.8576L194.104 37.5236ZM191.298 38.1063C190.197 38.1063 189.41 37.7805 188.863 37.1843L188.121 37.8629C188.901 38.7134 189.985 39.111 191.298 39.111V38.1063ZM188.867 37.1896C188.325 36.5805 188.014 35.6537 188.014 34.3288H187.008C187.008 35.7969 187.352 36.9999 188.116 37.8576L188.867 37.1896ZM188.014 34.3288V27.879H187.008V34.3288H188.014ZM187.511 28.3813H188.462V27.3766H187.511V28.3813ZM187.959 27.879V34.2987H188.965V27.879H187.959ZM187.959 34.2987C187.959 35.4327 188.21 36.3901 188.775 37.1099L189.567 36.4906C189.186 36.0048 188.965 35.2945 188.965 34.2987H187.959ZM188.781 37.1172C189.38 37.8534 190.248 38.1917 191.298 38.1917V37.187C190.477 37.187 189.927 36.9326 189.561 36.4833L188.781 37.1172ZM191.298 38.1917C192.355 38.1917 193.227 37.8546 193.818 37.1132L193.032 36.4873C192.677 36.9314 192.131 37.187 191.298 37.187V38.1917ZM193.817 37.114C194.394 36.3936 194.652 35.4349 194.652 34.2987H193.646C193.646 35.2923 193.421 36.0013 193.032 36.4866L193.817 37.114ZM194.652 34.2987V27.879H193.646V34.2987H194.652ZM194.149 28.3813H195.084V27.3766H194.149V28.3813ZM194.581 27.879V34.3288H195.587V27.879H194.581ZM194.581 34.3288C194.581 35.6537 194.271 36.5805 193.728 37.1896L194.479 37.8576C195.244 36.9999 195.587 35.7969 195.587 34.3288H194.581ZM193.73 37.187C193.195 37.7798 192.41 38.1063 191.298 38.1063V39.111C192.619 39.111 193.705 38.7141 194.477 37.8602L193.73 37.187ZM197.488 38.4278H196.985V38.9301H197.488V38.4278ZM197.488 27.879V27.3766H196.985V27.879H197.488ZM202.828 28.3009L202.627 28.761L202.63 28.7625L202.633 28.7638L202.828 28.3009ZM204.412 29.4462L204.027 29.7685L204.03 29.7727L204.034 29.777L204.412 29.4462ZM205.348 31.134L204.868 31.284L204.869 31.2885L204.871 31.2928L205.348 31.134ZM205.348 35.1878L204.87 35.0311L204.869 35.0336L204.868 35.0358L205.348 35.1878ZM202.828 38.0209L203.024 38.4838L203.027 38.4825L203.03 38.481L202.828 38.0209ZM198.408 37.5387H197.906V38.041H198.408V37.5387ZM202.919 36.9359L203.195 37.3561L203.196 37.3548L202.919 36.9359ZM204.277 35.3234L203.815 35.124L203.815 35.1255L203.814 35.1273L204.277 35.3234ZM204.277 30.9833L203.813 31.177L203.815 31.1812L203.816 31.1855L204.277 30.9833ZM202.919 29.3709L202.639 29.7878L202.642 29.7903L202.646 29.7931L202.919 29.3709ZM198.408 28.753V28.2507H197.906V28.753H198.408ZM197.991 38.4278V27.879H196.985V38.4278H197.991ZM197.488 28.3813H200.551V27.3766H197.488V28.3813ZM200.551 28.3813C201.373 28.3813 202.06 28.5134 202.627 28.761L203.03 27.8408C202.309 27.5256 201.479 27.3766 200.551 27.3766V28.3813ZM202.633 28.7638C203.21 29.0067 203.67 29.3427 204.027 29.7685L204.798 29.124C204.33 28.5651 203.735 28.1377 203.024 27.838L202.633 28.7638ZM204.034 29.777C204.408 30.204 204.686 30.704 204.868 31.284L205.828 30.9841C205.607 30.2781 205.262 29.6529 204.791 29.1154L204.034 29.777ZM204.871 31.2928C205.064 31.8712 205.162 32.4903 205.162 33.1534H206.167C206.167 32.3898 206.054 31.6627 205.825 30.9753L204.871 31.2928ZM205.162 33.1534C205.162 33.8164 205.064 34.4413 204.87 35.0311L205.826 35.3445C206.054 34.6483 206.167 33.9169 206.167 33.1534H205.162ZM204.868 35.0358C204.687 35.606 204.408 36.1088 204.031 36.5486L204.794 37.2026C205.262 36.6578 205.606 36.0355 205.827 35.3397L204.868 35.0358ZM204.031 36.5486C203.673 36.9673 203.209 37.3066 202.627 37.5608L203.03 38.481C203.736 38.1726 204.328 37.7484 204.794 37.2026L204.031 36.5486ZM202.633 37.558C202.065 37.7976 201.375 37.9255 200.551 37.9255V38.9301C201.476 38.9301 202.305 38.7867 203.024 38.4838L202.633 37.558ZM200.551 37.9255H197.488V38.9301H200.551V37.9255ZM198.408 38.041H200.505V37.0364H198.408V38.041ZM200.505 38.041C201.565 38.041 202.475 37.8278 203.195 37.3561L202.643 36.5159C202.136 36.848 201.437 37.0364 200.505 37.0364V38.041ZM203.196 37.3548C203.899 36.8907 204.418 36.2771 204.74 35.5196L203.814 35.1273C203.572 35.6959 203.186 36.1573 202.642 36.5169L203.196 37.3548ZM204.738 35.5228C205.059 34.7834 205.217 33.9918 205.217 33.1534H204.211C204.211 33.8622 204.078 34.5172 203.815 35.124L204.738 35.5228ZM205.217 33.1534C205.217 32.3059 205.059 31.513 204.737 30.7811L203.816 31.1855C204.078 31.7798 204.211 32.4335 204.211 33.1534H205.217ZM204.741 30.7897C204.419 30.0211 203.899 29.4048 203.192 28.9487L202.646 29.7931C203.186 30.1407 203.571 30.5993 203.813 31.177L204.741 30.7897ZM203.2 28.9539C202.479 28.4702 201.567 28.2507 200.505 28.2507V29.2553C201.435 29.2553 202.132 29.4477 202.639 29.7878L203.2 28.9539ZM200.505 28.2507H198.408V29.2553H200.505V28.2507ZM197.906 28.753V37.5387H198.911V28.753H197.906ZM207.638 38.4278H207.136V38.9301H207.638V38.4278ZM207.638 27.879V27.3766H207.136V27.879H207.638ZM208.559 27.879H209.061V27.3766H208.559V27.879ZM208.559 38.4278V38.9301H209.061V38.4278H208.559ZM208.141 38.4278V27.879H207.136V38.4278H208.141ZM207.638 28.3813H208.559V27.3766H207.638V28.3813ZM208.056 27.879V38.4278H209.061V27.879H208.056ZM208.559 37.9255H207.638V38.9301H208.559V37.9255ZM211.161 36.0317L210.709 36.252L210.71 36.2542L210.711 36.2562L211.161 36.0317ZM211.161 30.26L210.711 30.0354L210.71 30.0374L211.161 30.26ZM212.865 28.3461L213.132 28.7721L213.134 28.7708L213.136 28.7693L212.865 28.3461ZM217.889 28.3461L217.618 28.7693L217.62 28.7708L217.622 28.7721L217.889 28.3461ZM219.578 30.26L219.126 30.4802L219.128 30.4835L219.129 30.4868L219.578 30.26ZM219.578 36.0317L219.128 35.8072L219.127 35.8092L219.126 35.8114L219.578 36.0317ZM217.376 37.177L217.644 37.6017L217.646 37.6005L217.376 37.177ZM218.733 35.5947L218.28 35.3779L218.278 35.3807L218.733 35.5947ZM218.733 30.697L218.278 30.911L218.28 30.9135L218.281 30.9163L218.733 30.697ZM217.376 29.1297L217.102 29.5512L217.106 29.554L217.11 29.5565L217.376 29.1297ZM213.378 29.1297L213.643 29.5565L213.646 29.555L213.648 29.5532L213.378 29.1297ZM212.005 35.5947L211.552 35.8114L211.553 35.8139L212.005 35.5947ZM213.378 37.177L213.108 37.6005L213.11 37.6022L213.113 37.6037L213.378 37.177ZM215.384 38.1214C214.512 38.1214 213.767 37.9159 213.132 37.5196L212.599 38.3715C213.412 38.8794 214.346 39.126 215.384 39.126V38.1214ZM213.132 37.5196C212.492 37.1205 211.984 36.5551 211.61 35.8072L210.711 36.2562C211.161 37.1559 211.79 37.8664 212.599 38.3715L213.132 37.5196ZM211.612 35.8114C211.25 35.069 211.06 34.1826 211.06 33.1383H210.054C210.054 34.3042 210.267 35.3468 210.709 36.252L211.612 35.8114ZM211.06 33.1383C211.06 32.0937 211.25 31.2136 211.611 30.4825L210.71 30.0374C210.267 30.9338 210.054 31.9727 210.054 33.1383H211.06ZM211.61 30.4845C211.984 29.7366 212.492 29.1712 213.132 28.7721L212.599 27.9201C211.79 28.4252 211.161 29.1358 210.711 30.0354L211.61 30.4845ZM213.136 28.7693C213.77 28.3645 214.514 28.1552 215.384 28.1552V27.1506C214.344 27.1506 213.408 27.4035 212.594 27.9229L213.136 28.7693ZM215.384 28.1552C216.244 28.1552 216.983 28.3639 217.618 28.7693L218.159 27.9229C217.346 27.404 216.416 27.1506 215.384 27.1506V28.1552ZM217.622 28.7721C218.26 29.1707 218.762 29.7343 219.126 30.4802L220.03 30.0397C219.59 29.138 218.965 28.4257 218.155 27.9201L217.622 28.7721ZM219.129 30.4868C219.499 31.2169 219.694 32.0955 219.694 33.1383H220.7C220.7 31.9709 220.482 30.9306 220.027 30.0332L219.129 30.4868ZM219.694 33.1383C219.694 34.1809 219.5 35.0655 219.128 35.8072L220.028 36.2562C220.481 35.3503 220.7 34.306 220.7 33.1383H219.694ZM219.126 35.8114C218.762 36.5574 218.26 37.121 217.622 37.5196L218.155 38.3715C218.965 37.8659 219.59 37.1536 220.03 36.252L219.126 35.8114ZM217.622 37.5196C216.986 37.9164 216.246 38.1214 215.384 38.1214V39.126C216.414 39.126 217.343 38.8789 218.155 38.3715L217.622 37.5196ZM215.384 38.2218C216.223 38.2218 216.982 38.0196 217.644 37.6017L217.107 36.7523C216.623 37.0577 216.055 37.2172 215.384 37.2172V38.2218ZM217.646 37.6005C218.317 37.173 218.83 36.5694 219.188 35.8087L218.278 35.3807C217.993 35.9862 217.601 36.4376 217.105 36.7535L217.646 37.6005ZM219.187 35.8114C219.558 35.0368 219.734 34.1409 219.734 33.1383H218.728C218.728 34.0244 218.573 34.7661 218.28 35.3779L219.187 35.8114ZM219.734 33.1383C219.734 32.1359 219.558 31.2438 219.186 30.4777L218.281 30.9163C218.573 31.5165 218.728 32.2519 218.728 33.1383H219.734ZM219.188 30.483C218.829 29.7212 218.315 29.121 217.641 28.703L217.11 29.5565C217.603 29.8619 217.993 30.3064 218.278 30.911L219.188 30.483ZM217.649 28.7083C216.986 28.2783 216.225 28.0698 215.384 28.0698V29.0745C216.052 29.0745 216.618 29.2377 217.102 29.5512L217.649 28.7083ZM215.384 28.0698C214.543 28.0698 213.779 28.2783 213.108 28.7063L213.648 29.5532C214.144 29.2375 214.717 29.0745 215.384 29.0745V28.0698ZM213.113 28.703C212.44 29.1199 211.922 29.7185 211.553 30.4777L212.458 30.9163C212.753 30.3092 213.149 29.8629 213.643 29.5565L213.113 28.703ZM211.553 30.4777C211.181 31.2438 211.005 32.1359 211.005 33.1383H212.01C212.01 32.2519 212.166 31.5165 212.458 30.9163L211.553 30.4777ZM211.005 33.1383C211.005 34.1409 211.181 35.0368 211.552 35.8114L212.459 35.3779C212.166 34.7661 212.01 34.0244 212.01 33.1383H211.005ZM211.553 35.8139C211.921 36.5722 212.438 37.174 213.108 37.6005L213.648 36.7535C213.151 36.4366 212.753 35.9835 212.458 35.3754L211.553 35.8139ZM213.113 37.6037C213.783 38.0196 214.546 38.2218 215.384 38.2218V37.2172C214.714 37.2172 214.139 37.0577 213.643 36.7503L213.113 37.6037Z" fill="#D9D9D9"/>
<path d="M164.37 40.3925V13.7742H166.235V40.3925H164.37Z" fill="#D9D9D9"/>
<path d="M164.37 40.3926H163.867V40.8949H164.37V40.3926ZM164.37 13.7743V13.272H163.867V13.7743H164.37ZM166.235 13.7743H166.738V13.272H166.235V13.7743ZM166.235 40.3926V40.8949H166.738V40.3926H166.235ZM164.873 40.3926V13.7743H163.867V40.3926H164.873ZM164.37 14.2766H166.235V13.272H164.37V14.2766ZM165.732 13.7743V40.3926H166.738V13.7743H165.732ZM166.235 39.8903H164.37V40.8949H166.235V39.8903Z" fill="#D9D9D9"/>
</svg>
