<svg width="221" height="54" fill="none" xmlns="http://www.w3.org/2000/svg"><path d="M11.995 38.35c-2.07 0-3.89-.49-5.458-1.47-1.569-.979-2.8-2.36-3.693-4.146-.872-1.785-1.308-3.875-1.308-6.269s.436-4.473 1.308-6.236c.893-1.785 2.124-3.167 3.693-4.147 1.569-1.001 3.388-1.502 5.458-1.502 1.809 0 3.421.392 4.838 1.175 1.438.762 2.625 1.85 3.562 3.266l-1.765 1.044a7.77 7.77 0 0 0-2.81-2.579c-1.134-.61-2.408-.914-3.825-.914-1.634 0-3.083.402-4.347 1.208-1.264.784-2.255 1.915-2.974 3.396-.72 1.48-1.079 3.243-1.079 5.29 0 2.045.36 3.82 1.079 5.321.719 1.48 1.71 2.623 2.974 3.429 1.264.783 2.713 1.175 4.347 1.175 1.417 0 2.691-.305 3.825-.914a7.771 7.771 0 0 0 2.81-2.58l1.765 1.078a10.137 10.137 0 0 1-3.562 3.232c-1.417.762-3.03 1.143-4.838 1.143zm12.679-.424V15.07h1.994v22.856h-1.994zm7.533 0V15.07H34.2l12.911 19.264V15.07h2.026v22.856h-1.96L34.2 18.466v19.46h-1.993zm22.407 0V15.07h14.218v1.894H56.607v8.293h11.146v1.96H56.607v8.782h12.617v1.927h-14.61zm18.928 0V15.07h1.993l7.877 11.787 7.78-11.787h2.058v22.856h-2.059V18.563l-7.223 11.004h-1.111l-7.29-11.003v19.362h-2.025zm23.09 0 9.185-22.856h1.765l9.152 22.856h-2.223l-2.712-6.89h-10.231l-2.713 6.89h-2.222zm5.623-8.816h8.825l-4.38-11.2-4.445 11.2zm20.614 8.816V16.964h-7.517V15.07h17.094v1.894h-7.518v20.962h-2.059zm13.521 0V15.07h1.993v22.856h-1.993zm16.782.424c-2.07 0-3.889-.49-5.458-1.47-1.569-.979-2.8-2.36-3.693-4.146-.872-1.785-1.308-3.875-1.308-6.269s.436-4.473 1.308-6.236c.893-1.785 2.124-3.167 3.693-4.147 1.569-1.001 3.388-1.502 5.458-1.502 1.809 0 3.421.392 4.838 1.175 1.438.762 2.625 1.85 3.562 3.266l-1.765 1.044a7.777 7.777 0 0 0-2.81-2.579c-1.134-.61-2.408-.914-3.825-.914-1.634 0-3.083.402-4.347 1.208-1.264.784-2.255 1.915-2.974 3.396-.719 1.48-1.079 3.243-1.079 5.29 0 2.045.36 3.82 1.079 5.321.719 1.48 1.71 2.623 2.974 3.429 1.264.783 2.713 1.175 4.347 1.175 1.417 0 2.691-.305 3.825-.914a7.778 7.778 0 0 0 2.81-2.58l1.765 1.078a10.136 10.136 0 0 1-3.562 3.232c-1.417.762-3.029 1.143-4.838 1.143z" fill="#D9D9D9"/><path d="m6.537 36.88-.267.427.267-.426zm-3.693-4.146-.452.22v.002l.002.002.45-.224zm0-12.505-.45-.225-.001.002.45.223zm3.693-4.147.266.426.003-.001.002-.002-.271-.423zm10.296-.327-.244.44.004.002.004.002.236-.444zm3.562 3.265.257.433.454-.27-.291-.44-.42.277zm-1.765 1.045-.418.279.265.396.41-.242-.257-.433zm-2.81-2.58.238-.441-.239.442zm-8.172.295.265.427.003-.002.003-.002-.27-.423zm-2.974 3.395.452.22-.452-.22zm0 10.612-.454.217.002.002.452-.219zm2.974 3.428-.27.424.002.002.003.001.265-.427zm8.172.262.238.442-.239-.442zm2.81-2.58.263-.428-.413-.252-.268.402.418.278zm1.765 1.078.416.283.298-.437-.452-.275-.262.429zm-3.562 3.232.238.443.002-.002-.24-.44zm-4.838.64c-1.987 0-3.712-.468-5.192-1.392l-.533.852c1.659 1.035 3.573 1.545 5.725 1.545v-1.004zm-5.192-1.392c-1.484-.927-2.654-2.237-3.51-3.945l-.9.449c.932 1.86 2.224 3.315 3.877 4.348l.533-.852zm-3.507-3.941c-.832-1.704-1.257-3.716-1.257-6.049H1.033c0 2.455.447 4.623 1.359 6.49l.904-.441zm-1.257-6.049c0-2.334.425-4.333 1.255-6.014l-.901-.445c-.913 1.846-1.36 4.004-1.36 6.459H2.04zm1.254-6.012c.856-1.709 2.026-3.018 3.51-3.945l-.533-.852c-1.653 1.032-2.945 2.487-3.876 4.348l.9.45zm3.515-3.948c1.479-.944 3.202-1.423 5.187-1.423v-1.004c-2.155 0-4.07.522-5.729 1.58l.542.847zm5.187-1.423c1.734 0 3.26.375 4.594 1.113l.487-.879c-1.499-.83-3.197-1.238-5.08-1.238v1.004zm4.602 1.117c1.36.721 2.486 1.75 3.379 3.099l.839-.555c-.982-1.481-2.231-2.628-3.747-3.431l-.47.887zm3.542 2.39-1.765 1.044.513.864 1.765-1.044-.513-.865zm-1.09 1.198a8.272 8.272 0 0 0-2.991-2.743l-.477.884a7.268 7.268 0 0 1 2.631 2.416l.837-.557zm-2.991-2.743c-1.214-.653-2.572-.975-4.063-.975v1.005c1.342 0 2.533.288 3.586.854l.477-.884zm-4.063-.975c-1.72 0-3.265.426-4.617 1.287l.54.847c1.176-.749 2.53-1.129 4.077-1.129v-1.005zm-4.612 1.284c-1.353.839-2.405 2.047-3.161 3.603l.904.439c.682-1.404 1.613-2.46 2.787-3.188l-.53-.854zm-3.161 3.603c-.76 1.563-1.13 3.405-1.13 5.509h1.006c0-1.988.35-3.673 1.028-5.07l-.904-.439zm-1.13 5.509c0 2.104.37 3.956 1.128 5.539l.908-.434c-.68-1.42-1.03-3.117-1.03-5.105H3.092zm1.13 5.541c.755 1.556 1.806 2.773 3.156 3.633l.54-.847c-1.177-.75-2.11-1.82-2.792-3.224l-.904.438zm3.161 3.636c1.351.838 2.894 1.251 4.612 1.251V35.89c-1.55 0-2.905-.37-4.082-1.1l-.53.853zm4.612 1.251c1.491 0 2.85-.321 4.063-.974l-.477-.885c-1.053.566-2.244.855-3.586.855v1.004zm4.063-.974a8.273 8.273 0 0 0 2.99-2.743l-.836-.557a7.267 7.267 0 0 1-2.63 2.415l.476.885zm2.31-2.593 1.765 1.078.524-.858-1.764-1.078-.525.858zm1.612.366a9.635 9.635 0 0 1-3.388 3.074l.482.882a10.639 10.639 0 0 0 3.737-3.39l-.831-.566zm-3.386 3.073c-1.334.718-2.863 1.083-4.599 1.083v1.004c1.882 0 3.578-.396 5.076-1.202l-.477-.885zm8.08 1.16h-.503v.503h.503v-.502zm0-22.855v-.503h-.503v.503h.503zm1.994 0h.502v-.503h-.502v.503zm0 22.855v.503h.502v-.502h-.502zm-1.491 0V15.07H24.17v22.855h1.006zm-.503-22.353h1.994v-1.005h-1.994v1.005zm1.49-.502v22.855h1.006V15.07h-1.005zm.504 22.353h-1.994v1.005h1.994v-1.005zm5.539.502h-.503v.503h.503v-.502zm0-22.855v-.503h-.503v.503h.503zm1.993 0 .418-.28-.15-.223H34.2v.503zm12.91 19.264-.417.28.92 1.373v-1.653h-.502zm0-19.264v-.503h-.502v.503h.503zm2.027 0h.503v-.503h-.503v.503zm0 22.855v.503h.503v-.502h-.503zm-1.96 0-.42.28.15.223h.27v-.502zM34.2 18.465l.419-.278-.921-1.382v1.66h.502zm0 19.46v.503h.503v-.502H34.2zm-1.49 0V15.07h-1.006v22.855h1.005zm-.503-22.353H34.2v-1.005h-1.993v1.005zm1.576-.223 12.91 19.265.836-.56-12.91-19.264-.836.56zm13.83 18.985V15.07h-1.005v19.264h1.006zm-.502-18.762h2.026v-1.005h-2.026v1.005zm1.524-.502v22.855h1.005V15.07h-1.005zm.502 22.353h-1.96v1.005h1.96v-1.005zm-1.542.224-12.976-19.46-.837.557 12.976 19.46.837-.557zM33.698 18.466v19.46h1.005v-19.46h-1.005zm.502 18.957h-1.993v1.005H34.2v-1.005zm20.414.502h-.503v.503h.503v-.502zm0-22.855v-.503h-.503v.503h.503zm14.218 0h.502v-.503h-.502v.503zm0 1.893v.503h.502v-.503h-.502zm-12.225 0v-.502h-.502v.503h.502zm0 8.294h-.502v.502h.502v-.502zm11.146 0h.503v-.502h-.503v.502zm0 1.959v.502h.503v-.502h-.503zm-11.146 0v-.502h-.502v.502h.502zm0 8.783h-.502v.502h.502V36zm12.617 0h.503v-.502h-.503v.502zm0 1.926v.503h.503v-.502h-.503zm-14.108 0V15.07h-1.005v22.855h1.006zm-.502-22.353h14.218v-1.005H54.614v1.005zm13.715-.502v1.893h1.005V15.07H68.33zm.503 1.391H56.607v1.005h12.225V16.46zm-12.727.503v8.293h1.005v-8.294h-1.005zm.502 8.795h11.146v-1.004H56.607v1.004zm10.643-.502v1.959h1.006v-1.96H67.25zm.503 1.457H56.607v1.004h11.146v-1.004zm-11.648.502v8.783h1.005v-8.783h-1.005zm.502 9.285h12.617v-1.004H56.607v1.005zM68.721 36v1.926h1.006V36H68.72zm.503 1.424h-14.61v1.005h14.61v-1.005zm4.317.502h-.502v.503h.502v-.502zm0-22.855v-.503h-.502v.503h.502zm1.994 0 .418-.28-.149-.223h-.269v.503zm7.877 11.787-.418.279.42.63.418-.633-.42-.276zm7.78-11.787v-.503h-.271l-.15.226.42.277zm2.058 0h.503v-.503h-.503v.503zm0 22.855v.503h.503v-.502h-.503zm-2.059 0h-.503v.503h.503v-.502zm0-19.362h.503v-1.682l-.923 1.407.42.275zm-7.223 11.004v.502h.272l.148-.227-.42-.275zm-1.111 0-.42.277.15.225h.27v-.502zm-7.29-11.004.42-.277-.922-1.392v1.67h.503zm0 19.363v.502h.504v-.502h-.503zm-1.523 0V15.07H73.04v22.855h1.005zm-.503-22.354h1.994v-1.005h-1.994v1.005zm1.576-.223 7.877 11.787.836-.558-7.877-11.787-.836.558zm8.715 11.784 7.78-11.787-.84-.553-7.78 11.787.84.553zm7.36-11.56h2.058v-1.006h-2.059v1.005zm1.556-.503v22.855h1.005V15.07h-1.005zm.502 22.353h-2.059v1.005h2.06v-1.005zm-1.556.502V18.564h-1.006v19.363h1.006zm-.923-19.637L83.547 29.29l.841.551 7.224-11.003-.841-.551zm-6.803 10.776h-1.111v1.005h1.11v-1.005zm-.692.226-7.289-11.004-.838.555 7.288 11.003.839-.554zm-8.21-10.727v19.363h1.005V18.563h-1.006zm.502 18.86H73.54v1.005h2.027v-1.005zm21.065.502-.467-.187-.277.69h.744v-.502zm9.184-22.855v-.503h-.34l-.126.316.466.187zm1.765 0 .467-.187-.126-.316h-.341v.503zm9.152 22.855v.503h.743l-.276-.69-.467.188zm-2.223 0-.467.184.125.319h.342v-.502zm-2.712-6.889.467-.184-.125-.318h-.342v.502zm-10.231 0v-.502h-.342l-.126.318.468.184zm-2.713 6.89v.502h.343l.125-.319-.468-.184zm3.4-8.816-.468-.185-.273.687h.741v-.502zm8.825 0v.502h.736l-.268-.685-.468.183zm-4.38-11.2.468-.182-.465-1.19-.471 1.187.468.185zm-9.6 20.203 9.184-22.856-.933-.374-9.185 22.855.933.375zm8.717-22.54h1.765v-1.006h-1.765v1.005zm1.298-.317 9.152 22.856.934-.373-9.152-22.856-.934.373zm9.619 22.167h-2.223v1.005h2.223v-1.005zm-1.755.319-2.713-6.89-.935.368 2.713 6.89.935-.368zm-3.18-7.208h-10.231v1.005h10.231v-1.005zm-10.699.318-2.712 6.89.935.367 2.713-6.889-.936-.368zm-2.245 6.571h-2.222v1.005h2.222v-1.005zm3.4-7.81h8.825v-1.006h-8.825v1.005zm9.293-.686-4.38-11.2-.937.366 4.38 11.2.937-.366zm-5.316-11.202-4.445 11.2.935.37 4.445-11.2-.935-.37zm16.637 20.2h-.503v.503h.503v-.502zm0-20.961h.503v-.503h-.503v.503zm-7.517 0h-.503v.502h.503v-.503zm0-1.894v-.503h-.503v.503h.503zm17.094 0h.503v-.503h-.503v.503zm0 1.893v.503h.503v-.503h-.503zm-7.518 0v-.502h-.502v.503h.502zm0 20.962v.503h.503v-.502h-.503zm-1.556 0V16.965h-1.006v20.962h1.006zm-.503-21.464h-7.517v1.005h7.517V16.46zm-7.014.503V15.07h-1.006v1.893h1.006zm-.503-1.392h17.094v-1.005h-17.094v1.005zm16.591-.502v1.893h1.006V15.07h-1.006zm.503 1.391h-7.518v1.005h7.518V16.46zm-8.02.503v20.962h1.005V16.962h-1.005zm.502 20.46h-2.059v1.004h2.059v-1.005zm11.462.502h-.503v.502h.503v-.502zm0-22.856v-.503h-.503v.503h.503zm1.993 0h.503v-.503h-.503v.503zm0 22.855v.503h.503v-.502h-.503zm-1.49 0V15.07h-1.006v22.855h1.006zm-.503-22.353h1.993v-1.005h-1.993v1.005zm1.491-.502v22.855h1.005V15.07h-1.005zm.502 22.353h-1.993v1.005h1.993v-1.005zm9.331-.542-.267.426.267-.426zm-3.693-4.147-.452.22.001.002.001.002.45-.224zm0-12.505-.45-.225-.001.002.451.223zm3.693-4.147.266.426.002-.001.003-.002-.271-.423zm10.296-.327-.244.44.004.002.004.002.236-.444zm3.562 3.265.257.433.454-.27-.291-.44-.42.277zm-1.765 1.045-.418.279.265.396.41-.242-.257-.433zm-2.811-2.58.239-.441-.239.442zm-8.171.295.265.427.003-.002.003-.002-.271-.423zm-2.974 3.395.452.22-.452-.22zm0 10.612-.454.217.001.002.453-.219zm2.974 3.428-.27.424.002.002.003.001.265-.427zm8.171.262.239.442-.239-.442zm2.811-2.58.263-.428-.413-.252-.268.402.418.278zm1.765 1.078.416.283.298-.437-.451-.275-.263.429zm-3.562 3.232.238.443.002-.002-.24-.44zm-4.838.64c-1.987 0-3.712-.468-5.192-1.392l-.533.852c1.658 1.035 3.572 1.545 5.725 1.545v-1.004zm-5.192-1.392c-1.484-.927-2.654-2.237-3.51-3.945l-.899.449c.931 1.86 2.223 3.315 3.876 4.348l.533-.852zm-3.508-3.941c-.832-1.704-1.256-3.716-1.256-6.049h-1.006c0 2.455.447 4.623 1.359 6.49l.903-.441zm-1.256-6.049c0-2.334.425-4.333 1.255-6.014l-.901-.445c-.913 1.846-1.36 4.004-1.36 6.459h1.006zm1.254-6.012c.856-1.709 2.026-3.018 3.51-3.945l-.533-.852c-1.653 1.032-2.945 2.487-3.876 4.348l.899.45zm3.515-3.948c1.479-.944 3.202-1.423 5.187-1.423v-1.004c-2.155 0-4.07.522-5.729 1.58l.542.847zm5.187-1.423c1.734 0 3.261.375 4.594 1.113l.487-.879c-1.499-.83-3.197-1.238-5.081-1.238v1.004zm4.602 1.117c1.361.721 2.486 1.75 3.379 3.099l.839-.555c-.982-1.481-2.231-2.628-3.747-3.431l-.471.887zm3.542 2.39-1.765 1.044.513.864 1.765-1.044-.513-.865zm-1.09 1.198a8.278 8.278 0 0 0-2.991-2.743l-.477.884a7.266 7.266 0 0 1 2.631 2.416l.837-.557zm-2.991-2.743c-1.214-.653-2.572-.975-4.063-.975v1.005c1.342 0 2.533.288 3.586.854l.477-.884zm-4.063-.975c-1.721 0-3.265.426-4.617 1.287l.541.847c1.175-.749 2.529-1.129 4.076-1.129v-1.005zm-4.612 1.284c-1.353.839-2.406 2.047-3.162 3.603l.905.439c.682-1.404 1.613-2.46 2.787-3.188l-.53-.854zm-3.162 3.603c-.759 1.563-1.129 3.405-1.129 5.509h1.006c0-1.988.349-3.673 1.028-5.07l-.905-.439zm-1.129 5.509c0 2.104.37 3.956 1.128 5.539l.908-.434c-.681-1.42-1.03-3.117-1.03-5.105h-1.006zm1.129 5.541c.756 1.556 1.807 2.773 3.157 3.633l.541-.847c-1.178-.75-2.11-1.82-2.793-3.224l-.905.438zm3.162 3.636c1.351.838 2.894 1.251 4.612 1.251V35.89c-1.55 0-2.905-.37-4.082-1.1l-.53.853zm4.612 1.251c1.491 0 2.849-.321 4.063-.974l-.477-.885c-1.053.566-2.244.855-3.586.855v1.004zm4.063-.974a8.278 8.278 0 0 0 2.991-2.743l-.837-.557a7.265 7.265 0 0 1-2.631 2.415l.477.885zm2.31-2.593 1.765 1.078.525-.858-1.765-1.078-.525.858zm1.612.366a9.639 9.639 0 0 1-3.388 3.074l.481.882a10.648 10.648 0 0 0 3.738-3.39l-.831-.566zm-3.386 3.073c-1.334.718-2.863 1.083-4.599 1.083v1.004c1.881 0 3.578-.396 5.076-1.202l-.477-.885zM169.469 25.367h-.503v.503h.503v-.503zm0-10.549v-.502h-.503v.502h.503zm6.607 0h.503v-.502h-.503v.502zm0 .875v.502h.503v-.502h-.503zm-5.687 0v-.503h-.503v.503h.503zm0 3.827h-.503v.503h.503v-.503zm5.189 0h.503v-.502h-.503v.502zm0 .904v.503h.503v-.503h-.503zm-5.189 0v-.502h-.503v.502h.503zm0 4.943v.503h.503v-.503h-.503zm-.418 0V14.818h-1.005v10.55h1.005zm-.502-10.046h6.607v-1.005h-6.607v1.005zm6.104-.502v.873h1.006v-.873h-1.006zm.503.371h-5.687v1.005h5.687V15.19zm-6.19.503v3.827h1.006v-3.827h-1.006zm.503 4.33h5.189v-1.005h-5.189v1.005zm4.686-.503v.904h1.006v-.904h-1.006zm.503.402h-5.189v1.005h5.189v-1.005zm-5.692.502v4.943h1.006v-4.943h-1.006zm.503 4.441h-.92v1.005h.92v-1.005zm7.388.502h-.503v.503h.503v-.503zm0-10.549v-.502h-.503v.502h.503zm.92 0h.503v-.502h-.503v.502zm0 10.55v.502h.503v-.503h-.503zm-.417 0v-10.55h-1.006v10.55h1.006zm-.503-10.047h.92v-1.005h-.92v1.005zm.418-.502v10.548h1.005V14.818h-1.005zm.502 10.046h-.92v1.005h.92v-1.005zm2.557.502h-.503v.503h.503v-.503zm0-10.549v-.502h-.503v.502h.503zm.92 0h.503v-.502h-.503v.502zm0 9.66h-.503v.502h.503v-.502zm5.838 0h.503v-.502h-.503v.502zm0 .89v.502h.503v-.503h-.503zm-6.255 0v-10.55h-1.006v10.55h1.006zm-.503-10.047h.92v-1.005h-.92v1.005zm.417-.502v9.66h1.006v-9.66h-1.006zm.503 10.161h5.838v-1.004h-5.838v1.005zm5.335-.502v.89h1.006v-.89h-1.006zm.503.387h-6.758v1.005h6.758v-1.005zm1.698.502h-.503v.503h.503v-.503zm0-10.549v-.502h-.503v.502h.503zm.92 0 .418-.278-.149-.224h-.269v.502zm3.636 5.44-.419.28.421.63.418-.633-.42-.276zm3.59-5.44v-.502h-.271l-.149.226.42.277zm.95 0h.503v-.502h-.503v.502zm0 10.55v.502h.503v-.503h-.503zm-.95 0h-.503v.502h.503v-.503zm0-8.937h.503v-1.682l-.924 1.406.421.276zm-3.334 5.078v.503h.272l.149-.227-.421-.276zm-.513 0-.419.278.149.225h.27v-.503zm-3.364-5.078.42-.277-.923-1.393v1.67h.503zm0 8.936v.503h.503v-.503h-.503zm-.432 0V14.818h-1.006v10.55h1.006zm-.503-10.046h.92v-1.005h-.92v1.005zm.502-.224 3.635 5.44.837-.557-3.636-5.44-.836.557zm4.474 5.438 3.59-5.44-.84-.553-3.59 5.44.84.553zm3.17-5.214h.95v-1.005h-.95v1.005zm.448-.502v10.548h1.005V14.818h-1.005zm.502 10.046h-.95v1.005h.95v-1.005zm-.447.502v-8.936h-1.006v8.936h1.006zm-.924-9.212-3.333 5.079.841.55 3.333-5.078-.841-.55zm-2.913 4.852h-.513v1.005h.513v-1.005zm-.093.225-3.364-5.078-.839.554 3.364 5.079.839-.555zm-4.287-4.801v8.936h1.006v-8.936h-1.006zm.503 8.434h-.935v1.005h.935v-1.005zm-19.924 13.322-.203.46h.003l.003.002.197-.462zm-1.675-1.357-.286-.412-.426.295.308.416.404-.299zm.739-.512.385-.323-.295-.35-.376.26.286.413zm1.328 1.04-.221.45.005.003.005.003.211-.456zm3.122.15-.166-.474-.001.001h-.002l.169.474zm1.087-2.727-.444.237.004.006.003.006.437-.25zm-2.927-1.296-.093.493h.002l.002.001.089-.494zm-2.534-4.43.421.273.002-.002.001-.002-.424-.27zm1.176-1.025.218.453.004-.002.003-.002-.225-.45zm3.651.03-.218.452.003.002.003.001.212-.455zm1.539 1.055.347.363.381-.363-.381-.363-.347.363zm-.664.633-.331.378.346.302.332-.317-.347-.363zm-1.267-.844-.225.449.004.002.004.002.217-.453zm-3.228.18.301.402h.002l-.303-.402zm-.136 2.788-.351.36.003.003.003.003.345-.366zm1.946.769-.091.494h.003l.088-.494zm3.153 4.657-.404-.3-.001.001.405.299zm-1.283.98.19.464.004-.001.003-.002-.197-.462zm-1.825-.172c-.745 0-1.411-.13-2.006-.382l-.393.925c.733.31 1.535.462 2.399.462v-1.005zm-2-.38a3.612 3.612 0 0 1-1.472-1.194l-.809.597a4.613 4.613 0 0 0 1.876 1.518l.405-.92zm-1.59-.483.739-.512-.573-.826-.739.513.573.825zm.067-.602c.417.495.915.886 1.492 1.168l.442-.902a3.545 3.545 0 0 1-1.164-.912l-.77.646zm1.502 1.173c.601.277 1.284.408 2.036.408v-1.005c-.636 0-1.17-.11-1.614-.315l-.422.912zm2.036.408c.523 0 1.014-.078 1.467-.24l-.339-.946a3.321 3.321 0 0 1-1.128.181v1.005zm1.464-.24a2.64 2.64 0 0 0 1.186-.801l-.774-.64c-.176.212-.418.38-.745.493l.333.949zm1.186-.801c.327-.394.478-.874.478-1.405h-1.006c0 .332-.09.576-.246.764l.774.64zm.478-1.405c0-.454-.096-.875-.308-1.244l-.873.498c.11.193.175.436.175.745h1.006zm-.301-1.232c-.224-.418-.637-.724-1.136-.957l-.425.91c.406.19.596.376.674.521l.887-.474zm-1.136-.957c-.512-.238-1.236-.433-2.145-.596l-.178.988c.881.158 1.505.335 1.898.519l.425-.91zm-2.141-.596c-.929-.175-1.56-.48-1.957-.873-.384-.38-.59-.882-.59-1.557h-1.006c0 .903.287 1.676.889 2.271.589.583 1.436.95 2.478 1.146l.186-.987zm-2.547-2.43c0-.486.118-.891.341-1.233l-.843-.548c-.34.523-.504 1.123-.504 1.781h1.006zm.344-1.237c.228-.358.546-.638.97-.841l-.435-.906a3.289 3.289 0 0 0-1.383 1.208l.848.54zm.977-.845c.422-.21.926-.324 1.525-.324v-1.004c-.728 0-1.39.137-1.974.43l.449.898zm1.525-.324c.638 0 1.196.123 1.683.357l.437-.905c-.64-.308-1.35-.456-2.12-.456v1.004zm1.689.36c.512.238.979.558 1.403.963l.695-.726a6.178 6.178 0 0 0-1.674-1.148l-.424.911zm1.404.236-.664.633.694.727.664-.633-.694-.727zm.014.619a6.06 6.06 0 0 0-1.382-.92l-.433.907c.398.19.782.445 1.153.769l.662-.756zm-1.373-.916c-.523-.26-1.11-.384-1.749-.384v1.005c.508 0 .937.097 1.299.278l.45-.899zm-1.749-.384c-.77 0-1.451.194-2.008.614l.607.801c.348-.263.804-.41 1.401-.41V28.07zm-2.006.613c-.589.44-.865 1.083-.865 1.848h1.006c0-.5.166-.823.462-1.045l-.603-.803zm-.865 1.848c0 .67.218 1.253.68 1.702l.701-.721c-.242-.235-.375-.545-.375-.98h-1.006zm.686 1.707c.472.445 1.243.722 2.2.897l.181-.988c-.913-.167-1.439-.402-1.691-.64l-.69.73zm2.203.898c1.266.225 2.088.566 2.547.968l.663-.756c-.667-.583-1.706-.965-3.034-1.201l-.176.989zm2.547.968c.437.382.674.912.674 1.656h1.005c0-.983-.326-1.809-1.016-2.412l-.663.756zm.674 1.656c0 .497-.133.901-.384 1.238l.807.6c.393-.528.582-1.148.582-1.838h-1.005zm-.385 1.24c-.252.34-.604.614-1.075.815l.394.924c.615-.261 1.119-.64 1.49-1.143l-.809-.597zm-1.067.812c-.475.193-1.018.294-1.636.294v1.005c.729 0 1.403-.12 2.015-.369l-.379-.93zm6.863.616h-.503v.502h.503v-.502zm0-9.675h.503v-.502h-.503v.502zm-3.469 0h-.503v.502h.503v-.502zm0-.874v-.502h-.503v.502h.503zm7.889 0h.503v-.502h-.503v.502zm0 .874v.502h.503v-.502h-.503zm-3.469 0v-.502h-.503v.502h.503zm0 9.675v.502h.502v-.502h-.502zm-.448 0v-9.675h-1.006v9.675h1.006zm-.503-10.177h-3.469v1.004h3.469v-1.004zm-2.967.502v-.874h-1.005v.874h1.005zm-.502-.372h7.889v-1.004h-7.889v1.004zm7.386-.502v.874h1.006v-.874h-1.006zm.503.372h-3.469v1.004h3.469v-1.004zm-3.972.502v9.675h1.005v-9.675h-1.005zm.503 9.172h-.951v1.005h.951v-1.005zm6.119-.401-.376.334.003.002.002.003.371-.34zm-.981-9.645v-.502h-.503v.502h.503zm.951 0h.503v-.502h-.503v.502zm.709 8.921-.396.31.003.004.003.003.39-.317zm4.254 0-.393-.313.393.313zm.724-8.921v-.502h-.503v.502h.503zm.935 0h.503v-.502h-.503v.502zm-.98 9.645.373.336.002-.002-.375-.334zm-2.806.582c-1.101 0-1.888-.325-2.435-.922l-.742.679c.78.85 1.864 1.248 3.177 1.248v-1.005zm-2.431-.916c-.542-.61-.853-1.536-.853-2.861h-1.006c0 1.468.344 2.67 1.108 3.529l.751-.668zm-.853-2.861v-6.45h-1.006v6.45h1.006zm-.503-5.948h.951v-1.004h-.951v1.004zm.448-.502v6.42h1.006v-6.42h-1.006zm0 6.42c0 1.134.251 2.091.816 2.81l.792-.618c-.381-.486-.602-1.197-.602-2.192h-1.006zm.822 2.818c.599.736 1.467 1.075 2.517 1.075v-1.005c-.821 0-1.371-.254-1.737-.704l-.78.634zm2.517 1.075c1.057 0 1.929-.337 2.52-1.079l-.786-.626c-.355.444-.901.7-1.734.7v1.005zm2.519-1.078c.577-.72.835-1.68.835-2.815h-1.006c0 .993-.225 1.702-.614 2.188l.785.627zm.835-2.815v-6.42h-1.006v6.42h1.006zm-.503-5.918h.935v-1.004h-.935v1.004zm.432-.502v6.45h1.006v-6.45h-1.006zm0 6.45c0 1.325-.31 2.252-.853 2.86l.751.669c.765-.858 1.108-2.061 1.108-3.53h-1.006zm-.851 2.858c-.535.593-1.32.92-2.432.92v1.004c1.321 0 2.407-.397 3.179-1.25l-.747-.674zm3.758 1.24h-.503v.503h.503v-.502zm0-10.548v-.502h-.503v.502h.503zm5.34.422-.201.46.003.002h.003l.195-.462zm1.584 1.145-.385.322.003.005.004.004.378-.33zm.936 1.688-.48.15.001.005.002.004.477-.159zm0 4.054-.478-.157-.001.003-.001.002.48.152zm-2.52 2.833.196.463.003-.002.003-.001-.202-.46zm-4.42-.482h-.502v.502h.502v-.502zm4.511-.603.276.42.001-.001-.277-.42zm1.358-1.613-.462-.199v.002l-.001.001.463.196zm0-4.34-.464.194.002.004.001.005.461-.203zm-1.358-1.612-.28.417.003.002.004.003.273-.422zm-4.511-.618v-.502h-.502v.502h.502zm-.417 9.675V27.879h-1.006v10.549h1.006zm-.503-10.047h3.063v-1.004h-3.063v1.004zm3.063 0c.822 0 1.509.132 2.076.38l.403-.92c-.721-.315-1.551-.464-2.479-.464v1.004zm2.082.383a3.602 3.602 0 0 1 1.394 1.005l.771-.645a4.605 4.605 0 0 0-1.774-1.286l-.391.926zm1.401 1.013c.374.427.652.927.834 1.507l.96-.3a5.125 5.125 0 0 0-1.037-1.869l-.757.662zm.837 1.516c.193.578.291 1.197.291 1.86h1.005a6.85 6.85 0 0 0-.342-2.178l-.954.318zm.291 1.86c0 .663-.098 1.288-.292 1.878l.956.313a7 7 0 0 0 .341-2.19h-1.005zm-.294 1.883a4.29 4.29 0 0 1-.837 1.513l.763.654a5.283 5.283 0 0 0 1.033-1.863l-.959-.304zm-.837 1.513a3.82 3.82 0 0 1-1.404 1.012l.403.92c.706-.308 1.298-.733 1.764-1.278l-.763-.654zm-1.398 1.009c-.568.24-1.258.367-2.082.367v1.005c.925 0 1.754-.143 2.473-.446l-.391-.926zm-2.082.367h-3.063v1.005h3.063v-1.005zm-2.143.116h2.097v-1.005h-2.097v1.005zm2.097 0c1.06 0 1.97-.213 2.69-.685l-.552-.84c-.507.332-1.206.52-2.138.52v1.005zm2.691-.686a4.08 4.08 0 0 0 1.544-1.835l-.926-.393a3.08 3.08 0 0 1-1.172 1.39l.554.838zm1.542-1.832a5.89 5.89 0 0 0 .479-2.37h-1.006c0 .71-.133 1.364-.396 1.971l.923.399zm.479-2.37a5.83 5.83 0 0 0-.48-2.372l-.921.405c.262.594.395 1.248.395 1.967h1.006zm-.476-2.363a3.985 3.985 0 0 0-1.549-1.841l-.546.844c.54.348.925.806 1.167 1.384l.928-.387zm-1.541-1.836c-.721-.484-1.633-.703-2.695-.703v1.004c.93 0 1.627.193 2.134.533l.561-.834zm-2.695-.703h-2.097v1.004h2.097v-1.004zm-2.599.502v8.786h1.005v-8.786h-1.005zm9.732 9.675h-.502v.502h.502v-.502zm0-10.549v-.502h-.502v.502h.502zm.921 0h.502v-.502h-.502v.502zm0 10.549v.502h.502v-.502h-.502zm-.418 0V27.879h-1.005v10.549h1.005zm-.503-10.047h.921v-1.004h-.921v1.004zm.418-.502v10.549h1.005V27.879h-1.005zm.503 10.046h-.921v1.005h.921v-1.005zm2.602-1.893-.452.22.001.002.001.002.45-.224zm0-5.772-.45-.225-.001.002.451.223zm1.704-1.914.267.426.002-.001.002-.002-.271-.423zm5.024 0-.271.423.002.002.002.001.267-.426zm1.689 1.914-.452.22.002.003.001.004.449-.227zm0 5.772-.45-.225-.001.002-.001.002.452.22zm-2.202 1.145.268.425.002-.002-.27-.423zm1.357-1.582-.453-.217-.002.003.455.214zm0-4.898-.455.214.002.002.001.003.452-.219zm-1.357-1.567-.274.421.004.003.004.003.266-.427zm-3.998 0 .265.427.003-.002.002-.002-.27-.423zm-1.373 6.465-.453.216.001.003.452-.22zm1.373 1.582-.27.423.002.002.003.002.265-.427zm2.006.944c-.872 0-1.617-.205-2.252-.601l-.533.851c.813.508 1.747.755 2.785.755v-1.005zm-2.252-.601c-.64-.4-1.148-.965-1.522-1.713l-.899.45c.45.899 1.079 1.61 1.888 2.114l.533-.851zm-1.52-1.709c-.362-.742-.552-1.628-.552-2.673h-1.006c0 1.166.213 2.209.655 3.114l.903-.44zm-.552-2.673c0-1.044.19-1.924.551-2.655l-.901-.446c-.443.897-.656 1.936-.656 3.101h1.006zm.55-2.653c.374-.748.882-1.314 1.522-1.713l-.533-.852c-.809.505-1.438 1.216-1.888 2.115l.899.45zm1.526-1.716c.634-.404 1.378-.614 2.248-.614v-1.004c-1.04 0-1.976.253-2.79.772l.542.846zm2.248-.614c.86 0 1.599.209 2.234.614l.541-.846c-.813-.519-1.743-.772-2.775-.772v1.004zm2.238.617c.638.399 1.14.962 1.504 1.708l.904-.44c-.44-.902-1.065-1.614-1.875-2.12l-.533.852zm1.507 1.715c.37.73.565 1.609.565 2.651h1.006c0-1.167-.218-2.207-.673-3.105l-.898.454zm.565 2.651c0 1.043-.194 1.928-.566 2.67l.9.448c.453-.906.672-1.95.672-3.118h-1.006zm-.568 2.673c-.364.746-.866 1.31-1.504 1.709l.533.851c.81-.505 1.435-1.217 1.875-2.119l-.904-.44zm-1.504 1.709c-.636.396-1.376.601-2.238.601v1.005c1.03 0 1.959-.247 2.771-.755l-.533-.851zm-2.238.702c.839 0 1.598-.202 2.26-.62l-.537-.85c-.484.306-1.052.465-1.723.465v1.005zm2.262-.622c.671-.427 1.184-1.03 1.542-1.791l-.91-.428c-.285.605-.677 1.057-1.173 1.373l.541.846zm1.541-1.789c.371-.774.547-1.67.547-2.673h-1.006c0 .886-.155 1.628-.448 2.24l.907.433zm.547-2.673c0-1.002-.176-1.894-.548-2.66l-.905.438c.292.6.447 1.336.447 2.222h1.006zm-.546-2.655c-.359-.762-.873-1.362-1.547-1.78l-.531.854c.493.305.883.75 1.168 1.354l.91-.428zm-1.539-1.775c-.663-.43-1.424-.638-2.265-.638v1.005c.668 0 1.234.163 1.718.476l.547-.843zm-2.265-.638c-.841 0-1.605.208-2.276.636l.54.847c.496-.316 1.069-.479 1.736-.479V28.07zm-2.271.633c-.673.417-1.191 1.015-1.56 1.775l.905.438c.295-.607.691-1.053 1.185-1.36l-.53-.853zm-1.56 1.775c-.372.766-.548 1.658-.548 2.66h1.005c0-.886.156-1.621.448-2.222l-.905-.438zm-.548 2.66c0 1.003.176 1.899.547 2.673l.907-.433c-.293-.612-.449-1.354-.449-2.24h-1.005zm.548 2.676c.368.758.885 1.36 1.555 1.786l.54-.846c-.497-.317-.895-.77-1.19-1.379l-.905.439zm1.56 1.79c.67.416 1.433.618 2.271.618v-1.005c-.67 0-1.245-.16-1.741-.467l-.53.854zM164.37 40.392V13.774h1.865v26.618h-1.865z" fill="#D9D9D9"/><path d="M164.37 40.393h-.503v.502h.503v-.502zm0-26.619v-.502h-.503v.502h.503zm1.865 0h.503v-.502h-.503v.502zm0 26.619v.502h.503v-.502h-.503zm-1.362 0V13.774h-1.006v26.619h1.006zm-.503-26.116h1.865v-1.005h-1.865v1.005zm1.362-.503v26.619h1.006V13.774h-1.006zm.503 26.116h-1.865v1.005h1.865V39.89z" fill="#D9D9D9"/></svg>