<svg width="50" height="50" viewBox="0 0 50 50" fill="none" xmlns="http://www.w3.org/2000/svg">
<path d="M22.1125 7.29071C22.2452 7.15484 22.4037 7.04693 22.5788 6.97335C22.7539 6.89977 22.942 6.86202 23.1319 6.86231C23.3218 6.8626 23.5097 6.90093 23.6846 6.97505C23.8595 7.04917 24.0177 7.15756 24.15 7.29384L40.3437 23.9095C40.6281 24.2013 40.7873 24.5926 40.7873 25.0001C40.7873 25.4076 40.6281 25.7989 40.3437 26.0907L24.15 42.7063C24.0175 42.8424 23.8591 42.9506 23.6841 43.0244C23.5091 43.0983 23.3211 43.1363 23.1312 43.1363C22.9413 43.1363 22.7533 43.0983 22.5783 43.0244C22.4034 42.9506 22.245 42.8424 22.1125 42.7063C21.8399 42.4273 21.6873 42.0527 21.6873 41.6626C21.6873 41.2725 21.8399 40.8979 22.1125 40.6188L37.3406 25.0001L22.1125 9.37509C21.8408 9.09618 21.6888 8.72223 21.6888 8.3329C21.6888 7.94357 21.8408 7.56963 22.1125 7.29071ZM9.61248 7.29071C9.74518 7.15484 9.90375 7.04693 10.0788 6.97335C10.2539 6.89977 10.442 6.86202 10.6319 6.86231C10.8218 6.8626 11.0097 6.90093 11.1846 6.97505C11.3595 7.04917 11.5177 7.15756 11.65 7.29384L27.8437 23.9095C28.1281 24.2013 28.2873 24.5926 28.2873 25.0001C28.2873 25.4076 28.1281 25.7989 27.8437 26.0907L11.65 42.7063C11.5175 42.8424 11.3591 42.9506 11.1841 43.0244C11.0091 43.0983 10.8211 43.1363 10.6312 43.1363C10.4413 43.1363 10.2533 43.0983 10.0783 43.0244C9.90337 42.9506 9.74497 42.8424 9.61248 42.7063C9.33991 42.4273 9.18732 42.0527 9.18732 41.6626C9.18732 41.2725 9.33991 40.8979 9.61248 40.6188L24.8406 25.0001L9.61248 9.37509C9.34085 9.09618 9.18884 8.72223 9.18884 8.3329C9.18884 7.94357 9.34085 7.56963 9.61248 7.29071Z" fill="#D9D9D9"/>
</svg>
