<svg width="36" height="52" viewBox="0 0 36 52" fill="none" xmlns="http://www.w3.org/2000/svg">
<path d="M34.3636 19.5H32.7273C31.8232 19.5 31.0909 20.2272 31.0909 21.125V26C31.0909 33.5969 24.4953 39.6927 16.6919 38.937C9.8908 38.2779 4.90909 32.2065 4.90909 25.4211V21.125C4.90909 20.2272 4.17682 19.5 3.27273 19.5H1.63636C0.732273 19.5 0 20.2272 0 21.125V25.2038C0 34.3078 6.54239 42.4237 15.5455 43.6566V47.125H9.81818C8.91409 47.125 8.18182 47.8522 8.18182 48.75V50.375C8.18182 51.2728 8.91409 52 9.81818 52H26.1818C27.0859 52 27.8182 51.2728 27.8182 50.375V48.75C27.8182 47.8522 27.0859 47.125 26.1818 47.125H20.4545V43.6952C29.2203 42.5009 36 35.0289 36 26V21.125C36 20.2272 35.2677 19.5 34.3636 19.5ZM18 35.75C23.4225 35.75 27.8182 31.3848 27.8182 26H19.0912C18.4889 26 18 25.6364 18 25.1875V23.5625C18 23.1136 18.4889 22.75 19.0912 22.75H27.8182V19.5H19.0912C18.4889 19.5 18 19.1364 18 18.6875V17.0625C18 16.6136 18.4889 16.25 19.0912 16.25H27.8182V13H19.0912C18.4889 13 18 12.6364 18 12.1875V10.5625C18 10.1136 18.4889 9.75 19.0912 9.75H27.8182C27.8182 4.36516 23.4225 0 18 0C12.5775 0 8.18182 4.36516 8.18182 9.75V26C8.18182 31.3848 12.5775 35.75 18 35.75Z" fill="#C3B214"/>
</svg>
