<svg width="40" height="55" viewBox="0 0 40 55" fill="none" xmlns="http://www.w3.org/2000/svg">
<path d="M40 0H30V3.66667H10V0H0V55H10V51.3333H30V55H40V0ZM6.66667 3.66667V7.33333H3.33333V3.66667H6.66667ZM36.6667 3.66667V7.33333H33.3333V3.66667H36.6667ZM30 7.33333V25.6667H10V7.33333H30ZM6.66667 11V14.6667H3.33333V11H6.66667ZM36.6667 11V14.6667H33.3333V11H36.6667ZM6.66667 18.3333V22H3.33333V18.3333H6.66667ZM36.6667 18.3333V22H33.3333V18.3333H36.6667ZM6.66667 25.6667V29.3333H3.33333V25.6667H6.66667ZM36.6667 25.6667V29.3333H33.3333V25.6667H36.6667ZM30 29.3333V47.6667H10V29.3333H30ZM6.66667 33V36.6667H3.33333V33H6.66667ZM36.6667 33V36.6667H33.3333V33H36.6667ZM6.66667 40.3333V44H3.33333V40.3333H6.66667ZM36.6667 40.3333V44H33.3333V40.3333H36.6667ZM6.66667 47.6667V51.3333H3.33333V47.6667H6.66667ZM36.6667 47.6667V51.3333H33.3333V47.6667H36.6667Z" fill="#C3B214"/>
</svg>
