<svg width="36" height="55" fill="none" xmlns="http://www.w3.org/2000/svg"><path d="M34.364 20.625h-1.637c-.904 0-1.636.77-1.636 1.719V27.5c0 8.035-6.596 14.483-14.4 13.683-6.8-.697-11.782-7.118-11.782-14.295v-4.544c0-.95-.732-1.719-1.636-1.719H1.636c-.904 0-1.636.77-1.636 1.719v4.314c0 9.63 6.542 18.213 15.546 19.517v3.669H9.818c-.904 0-1.636.769-1.636 1.718v1.72c0 .949.732 1.718 1.636 1.718h16.364c.904 0 1.636-.77 1.636-1.719v-1.718c0-.95-.732-1.72-1.636-1.72h-5.727v-3.627C29.22 44.953 36 37.05 36 27.5v-5.156c0-.95-.732-1.719-1.636-1.719zM18 37.813c5.422 0 9.818-4.617 9.818-10.313h-8.727c-.602 0-1.091-.385-1.091-.86v-1.718c0-.475.489-.86 1.091-.86h8.727v-3.437h-8.727c-.602 0-1.091-.385-1.091-.86v-1.718c0-.475.489-.86 1.091-.86h8.727V13.75h-8.727c-.602 0-1.091-.385-1.091-.86v-1.718c0-.475.489-.86 1.091-.86h8.727C27.818 4.617 23.422 0 18 0S8.182 4.617 8.182 10.313V27.5c0 5.696 4.396 10.313 9.818 10.313z" fill="#C3B214"/></svg>