<svg width="40" height="55" fill="none" xmlns="http://www.w3.org/2000/svg"><path d="M40 0H30v3.667H10V0H0v55h10v-3.667h20V55h10V0zM6.667 3.667v3.666H3.333V3.667h3.334zm30 0v3.666h-3.334V3.667h3.334zM30 7.333v18.334H10V7.333h20zM6.667 11v3.667H3.333V11h3.334zm30 0v3.667h-3.334V11h3.334zm-30 7.333V22H3.333v-3.667h3.334zm30 0V22h-3.334v-3.667h3.334zm-30 7.334v3.666H3.333v-3.666h3.334zm30 0v3.666h-3.334v-3.666h3.334zM30 29.333v18.334H10V29.333h20zM6.667 33v3.667H3.333V33h3.334zm30 0v3.667h-3.334V33h3.334zm-30 7.333V44H3.333v-3.667h3.334zm30 0V44h-3.334v-3.667h3.334zm-30 7.334v3.666H3.333v-3.666h3.334zm30 0v3.666h-3.334v-3.666h3.334z" fill="#C3B214"/></svg>