<svg width="70" height="55" viewBox="0 0 70 55" fill="none" xmlns="http://www.w3.org/2000/svg">
<g clip-path="url(#clip0_485_2)">
<path d="M63 49.125H70V52.5625C70 53.4742 69.6313 54.3485 68.9749 54.9932C68.3185 55.6378 67.4283 56 66.5 56H3.5C2.57174 56 1.6815 55.6378 1.02513 54.9932C0.368749 54.3485 0 53.4742 0 52.5625V49.125H7V7.875C7 4.09375 10.15 1 14 1H56C57.8565 1 59.637 1.72433 60.9497 3.01364C62.2625 4.30295 63 6.05164 63 7.875V49.125ZM14 7.875V38.8125H56V7.875H14ZM28 45.6875V49.125H42V45.6875H28Z" fill="#C3B214"/>
</g>
<defs>
<clipPath id="clip0_485_2">
<rect width="70" height="55" fill="white"/>
</clipPath>
</defs>
</svg>
