<svg width="55" height="55" fill="none" xmlns="http://www.w3.org/2000/svg"><path d="M53.281 18.174c0-6.665-5.404-12.067-12.067-12.067-5.06 0-9.386 3.118-11.18 7.534C28.915 6.88 23.06 1.719 15.98 1.719 8.105 1.719 1.72 8.105 1.72 15.98c0 7.623 5.984 13.83 13.507 14.224-.214.34-.343.73-.343 1.136v7.13l-7.68-3.84v16.457l7.753-3.876c.24.925 1.1 1.68 2.122 1.68h6.582v4.39h9.874v-4.389h5.485c1.203 0 2.194-1.049 2.194-2.193v-9.874l5.485 1.097v-7.68l-5.485 1.097c0-.397-.125-.779-.33-1.114.11.003.217.017.33.017 6.664 0 12.068-5.403 12.068-12.068zm-2.26 1.758a2.767 2.767 0 0 1-5.533 0 2.767 2.767 0 0 1 5.533 0zM45.49 9.304a2.765 2.765 0 1 1 0 5.53 2.765 2.765 0 0 1 0-5.53zm-1.802 9.288a.692.692 0 1 1-1.384 0 .692.692 0 0 1 1.384 0zm-1.383-2.658a.692.692 0 1 1 0 1.383.692.692 0 0 1 0-1.383zm-1.069 3.35a.693.693 0 1 1 0 1.385.693.693 0 0 1 0-1.386zm-.377-2.658a.692.692 0 1 1-1.383.004.692.692 0 0 1 1.383-.004zm-.692 1.966a.692.692 0 1 1-1.385 0 .692.692 0 0 1 1.385 0zM21.034 5.498a3.27 3.27 0 1 1 .184 6.536 3.27 3.27 0 0 1-.184-6.536zm-2.13 10.977a.819.819 0 0 1-1.635 0 .817.817 0 1 1 1.635 0zm-1.635-3.14a.818.818 0 1 1-.003 1.636.818.818 0 0 1 .003-1.636zm-1.262 3.956a.817.817 0 1 1-.005 1.635.817.817 0 0 1 .005-1.634zm-.447-3.139a.818.818 0 1 1-1.636.05.818.818 0 0 1 1.636-.05zm-.817 2.323a.818.818 0 0 1-1.635 0 .818.818 0 0 1 1.635 0zm-7.084 4.85a3.268 3.268 0 1 1 0-6.536 3.268 3.268 0 0 1 0 6.536zm0-12.559a3.269 3.269 0 1 1 6.537 0 3.269 3.269 0 0 1-6.537 0zm8.321 19.096a3.269 3.269 0 1 1 .002-6.538 3.269 3.269 0 0 1-.002 6.538zm8.322-13.073a3.27 3.27 0 0 1 0 6.537 3.27 3.27 0 0 1 0-6.537zm-2.834 14.356a14.295 14.295 0 0 0 7.951-8.427 12.084 12.084 0 0 0 6.787 8.427H21.468zm12.704-6.446a2.765 2.765 0 1 1 0-5.531 2.765 2.765 0 0 1 0 5.53zm0-10.63a2.767 2.767 0 1 1 5.533 0 2.767 2.767 0 0 1-5.533 0zm4.276 13.394a2.764 2.764 0 0 1 4.302-2.298 2.765 2.765 0 1 1-4.302 2.298z" fill="#C3B214"/></svg>