<svg width="55" height="55" fill="none" xmlns="http://www.w3.org/2000/svg"><path d="M49.181 5.102a1.93 1.93 0 0 0-.58-1.291 1.856 1.856 0 0 0-1.294-.527h-5.344c-.468 0-.92.178-1.265.5-.346.323-.56.765-.603 1.241l-3.048 35.05V26.166h-3.752v-5.741a1.948 1.948 0 0 0-.269-.98 1.897 1.897 0 0 0-.723-.703 1.85 1.85 0 0 0-1.922.09l-10.784 7.334h-1.308v-5.741a1.947 1.947 0 0 0-.269-.98 1.897 1.897 0 0 0-.723-.703 1.85 1.85 0 0 0-1.922.09L4.12 26.489a1.9 1.9 0 0 0-.614.689 1.945 1.945 0 0 0-.222.903v22.965c0 .507.197.994.549 1.353.352.359.829.56 1.326.56h45.056c1.037 0 1.78-.673 1.78-1.73 0-.164-2.814-46.126-2.814-46.126zM12.662 29.994v5.74H8.911v-5.74h3.751zm9.379 0v5.74h-3.752v-5.74h3.752zm9.379 0v5.74h-3.752v-5.74h3.752zm-18.758 9.568v5.741H8.911v-5.74h3.751zm9.379 0v5.741h-3.752v-5.74h3.752zm9.379 0v5.741h-3.752v-5.74h3.752z" fill="#C3B214"/></svg>