<svg width="61" height="61" viewBox="0 0 61 61" fill="none" xmlns="http://www.w3.org/2000/svg">
<path d="M48.8 6.09998H39.65V9.14998H21.35V6.09998H12.2V51.85H21.35V48.8H39.65V51.85H48.8V6.09998ZM18.3 9.14998V12.2H15.25V9.14998H18.3ZM45.75 9.14998V12.2H42.7V9.14998H45.75ZM39.65 12.2V27.45H21.35V12.2H39.65ZM18.3 15.25V18.3H15.25V15.25H18.3ZM45.75 15.25V18.3H42.7V15.25H45.75ZM18.3 21.35V24.4H15.25V21.35H18.3ZM45.75 21.35V24.4H42.7V21.35H45.75ZM18.3 27.45V30.5H15.25V27.45H18.3ZM45.75 27.45V30.5H42.7V27.45H45.75ZM39.65 30.5V45.75H21.35V30.5H39.65ZM18.3 33.55V36.6H15.25V33.55H18.3ZM45.75 33.55V36.6H42.7V33.55H45.75ZM18.3 39.65V42.7H15.25V39.65H18.3ZM45.75 39.65V42.7H42.7V39.65H45.75ZM18.3 45.75V48.8H15.25V45.75H18.3ZM45.75 45.75V48.8H42.7V45.75H45.75Z" fill="#C3B214"/>
</svg>
