<svg width="67" height="67" viewBox="0 0 67 67" fill="none" xmlns="http://www.w3.org/2000/svg">
<path d="M59.9116 6.21471C59.8823 5.61724 59.629 5.05414 59.2041 4.6419C58.7792 4.22967 58.2152 3.99985 57.6289 4H51.1189C50.5485 3.99997 49.9987 4.21762 49.5775 4.61019C49.1564 5.00275 48.8944 5.54183 48.8431 6.12146L45.1299 48.8187V31.875H40.5599V24.8812C40.5582 24.4601 40.4449 24.0474 40.2321 23.6866C40.0193 23.3258 39.7149 23.0305 39.3511 22.8317C38.9872 22.633 38.5775 22.5383 38.1652 22.5576C37.753 22.5769 37.3535 22.7096 37.0091 22.9416L23.8726 31.875H22.28V24.8812C22.2782 24.4601 22.165 24.0474 21.9522 23.6866C21.7394 23.3258 21.4349 23.0305 21.0711 22.8317C20.7073 22.633 20.2975 22.5383 19.8853 22.5576C19.473 22.5769 19.0735 22.7096 18.7291 22.9416L5.01911 32.2667C4.70583 32.4794 4.44889 32.7677 4.27111 33.1061C4.09332 33.4444 4.00019 33.8224 4 34.2063V62.1815C4 62.7998 4.24074 63.3928 4.66926 63.83C5.09778 64.2672 5.67898 64.5128 6.285 64.5128H61.1706C62.4342 64.5128 63.3391 63.6922 63.3391 62.4054C63.3391 62.2049 59.9116 6.21471 59.9116 6.21471V6.21471ZM15.425 36.5376V43.5314H10.855V36.5376H15.425ZM26.85 36.5376V43.5314H22.28V36.5376H26.85ZM38.275 36.5376V43.5314H33.705V36.5376H38.275ZM15.425 48.1939V55.1877H10.855V48.1939H15.425ZM26.85 48.1939V55.1877H22.28V48.1939H26.85ZM38.275 48.1939V55.1877H33.705V48.1939H38.275Z" fill="#C3B214"/>
</svg>
