<svg width="70" height="55" fill="none" xmlns="http://www.w3.org/2000/svg"><g clip-path="url(#a)"><path d="M63 49.125h7v3.438c0 .911-.369 1.785-1.025 2.43A3.533 3.533 0 0 1 66.5 56h-63a3.533 3.533 0 0 1-2.475-1.007A3.407 3.407 0 0 1 0 52.563v-3.438h7V7.875C7 4.094 10.15 1 14 1h42c1.856 0 3.637.724 4.95 2.014A6.813 6.813 0 0 1 63 7.875v41.25zM14 7.875v30.938h42V7.875H14zm14 37.813v3.437h14v-3.438H28z" fill="#C3B214"/></g><defs><clipPath id="a"><path fill="#fff" d="M0 0h70v55H0z"/></clipPath></defs></svg>