<svg width="65" height="65" viewBox="0 0 65 65" fill="none" xmlns="http://www.w3.org/2000/svg">
<path d="M13.8937 8.14663C14.3673 7.31758 15.0516 6.62844 15.8772 6.14902C16.7029 5.6696 17.6406 5.41693 18.5954 5.41663H46.4046C47.3593 5.41693 48.297 5.6696 49.1227 6.14902C49.9484 6.62844 50.6327 7.31758 51.1062 8.14663L54.2019 13.5633C55.9569 16.6345 54.3346 20.3423 51.2498 21.3823C51.2633 21.6043 51.2606 21.8264 51.2444 22.0512L48.9233 54.5512C48.826 55.9178 48.2145 57.1967 47.212 58.1305C46.2094 59.0642 44.8902 59.5833 43.5202 59.5833H21.4771C20.107 59.5833 18.7879 59.0642 17.7853 58.1305C16.7827 57.1967 16.1712 55.9178 16.0739 54.5512L13.7529 22.0512C13.7366 21.8286 13.7338 21.6052 13.7448 21.3823C10.6627 20.3423 9.04039 16.6345 10.7927 13.5633L13.891 8.14663H13.8937ZM19.1587 21.6666L19.7383 29.7916H45.2616L45.8412 21.6666H19.1587ZM20.9002 46.0416L21.4798 54.1666H43.5202L44.0998 46.0416H20.9002ZM49.5002 16.25L46.4046 10.8333H18.5954L15.4998 16.25H49.5002Z" fill="#C3B214"/>
</svg>
