<svg width="70" height="55" fill="none" xmlns="http://www.w3.org/2000/svg"><g clip-path="url(#a)"><path d="M16.539 11.938c-.705-5.557-7.47-5.864-8.294-2.898l-1.238 5.51-5.364 1.273c-2.887.847-2.587 7.796 2.82 8.52l4.054.544c5.408.724 9.256-3.228 8.55-8.783l-.528-4.166zm25.21 25.896c5.408.724 5.707 7.676 2.82 8.522l-5.363 1.272-1.24 5.512c-.823 2.964-7.588 2.656-8.293-2.9l-.528-4.165c-.705-5.556 3.141-9.509 8.55-8.783l4.054.542z" fill="#C3B214"/><path d="m39.359 37.514-1.665-.224c-5.408-.724-9.256 3.228-8.55 8.784l.116.909c2.153-.365 4.58-1.685 6.655-3.818 1.713-1.757 2.883-3.761 3.444-5.651zM8.054 24.824l.463.063c5.408.724 9.256-3.228 8.55-8.783l-.158-1.241c-1.748.61-3.58 1.778-5.197 3.44-1.977 2.03-3.234 4.39-3.658 6.521z" fill="#C3B214"/><path d="M23.814 45.26c7.808 0 14.138-6.503 14.138-14.524 0-8.022-6.33-14.524-14.138-14.524S9.676 22.713 9.676 30.735c0 8.022 6.33 14.524 14.138 14.524z" fill="#C3B214"/><path d="M23.775 30.295c.518 4.013-.838 9.19-3.441 12.398 1.114.34 2.283.52 3.479.52.97 0 1.92-.13 2.84-.356.747-3.527.34-8.083-2.878-12.562zm0 0c4.523.866 8.273 4.48 8.999 8.842a12.52 12.52 0 0 0 3.115-7.078c-2.47-2.575-6.507-4.374-12.114-1.764zm0 0c1.393-3.094 5.986-5.916 10.402-6.052-.5-.847-1.096-1.63-1.775-2.333a12.043 12.043 0 0 0-3.413-2.448c-3.15 1.692-5.91 4.973-5.214 10.833z" fill="#0E0D0F"/><path d="M23.831 30.352c-3.73-2.02-6.075-6.872-5.066-10.951a12.036 12.036 0 0 0-3.54 2.51 12.37 12.37 0 0 0-1.875 2.514c1.709 2.67 4.983 5.22 10.481 5.927zm-.111 0c-3.412 2.123-8.271 3.26-11.891 2.295a12.526 12.526 0 0 0 2.503 5.876c3.152-.968 6.723-3.413 9.387-8.17z" fill="#0E0D0F"/><path d="M64.665 12.355c3.894-.522 4.109-5.523 2.03-6.133l-3.86-.916-.892-3.966c-.593-2.135-5.462-1.913-5.97 2.086l-.38 2.997c-.508 3.999 2.26 6.844 6.153 6.322l2.92-.39zM46.52 30.997c-.507 3.999-5.378 4.22-5.97 2.086l-.891-3.967-3.862-.916c-2.077-.61-1.861-5.612 2.03-6.133l2.92-.39c3.892-.522 6.662 2.323 6.154 6.321l-.38 2.999z" fill="#C3B214" fill-opacity=".74"/><path d="m46.745 29.23.157-1.232c.507-3.998-2.262-6.844-6.154-6.322l-.638.086c.257 1.592 1.181 3.386 2.676 4.921 1.23 1.266 2.635 2.132 3.959 2.546zm8.891-23.15-.044.343c-.507 3.999 2.262 6.845 6.154 6.322l.87-.116c-.427-1.293-1.246-2.648-2.41-3.843-1.424-1.463-3.076-2.392-4.57-2.705z" fill="#C3B214" fill-opacity=".74"/><path d="M41.318 17.735c0 5.773 4.556 10.454 10.177 10.454 5.62 0 10.176-4.68 10.176-10.454 0-5.774-4.556-10.455-10.176-10.455s-10.177 4.68-10.177 10.454z" fill="#C3B214" fill-opacity=".74"/><path d="M51.803 17.706c-2.812.383-6.44-.62-8.687-2.545a9.233 9.233 0 0 0-.364 2.572c0 .718.09 1.42.25 2.1 2.47.553 5.662.252 8.8-2.127zm0 0c-.607 3.344-3.14 6.117-6.195 6.654a8.558 8.558 0 0 0 4.959 2.303c1.804-1.826 3.065-4.811 1.236-8.957zm0 0c2.168 1.03 4.145 4.426 4.24 7.691a8.814 8.814 0 0 0 1.635-1.312 8.913 8.913 0 0 0 1.715-2.524c-1.186-2.329-3.485-4.37-7.59-3.855z" fill="#0E0D0F"/><path d="M51.763 17.747c1.415-2.758 4.815-4.492 7.673-3.746a8.915 8.915 0 0 0-1.758-2.618 8.72 8.72 0 0 0-1.762-1.386c-1.872 1.263-3.658 3.685-4.153 7.75zm0-.082c-1.488-2.523-2.285-6.116-1.608-8.793a8.546 8.546 0 0 0-4.117 1.851c.678 2.33 2.391 4.972 5.725 6.942z" fill="#0E0D0F"/></g><defs><clipPath id="a"><path fill="#fff" d="M0 0h70v55H0z"/></clipPath></defs></svg>