<svg width="100" height="73" viewBox="0 0 100 73" fill="none" xmlns="http://www.w3.org/2000/svg">
<path d="M75.6 55.75H82V58.875C82 59.7038 81.6629 60.4987 81.0627 61.0847C80.4626 61.6708 79.6487 62 78.8 62H21.2C20.3513 62 19.5374 61.6708 18.9373 61.0847C18.3371 60.4987 18 59.7038 18 58.875V55.75H24.4V18.25C24.4 14.8125 27.28 12 30.8 12H69.2C70.8974 12 72.5253 12.6585 73.7255 13.8306C74.9257 15.0027 75.6 16.5924 75.6 18.25V55.75ZM30.8 18.25V46.375H69.2V18.25H30.8ZM43.6 52.625V55.75H56.4V52.625H43.6Z" fill="#C3B214"/>
</svg>
