<svg width="69" height="50" viewBox="0 0 69 50" fill="none" xmlns="http://www.w3.org/2000/svg">
<path d="M19.884 10.8406C19.2911 6.25091 13.6016 5.99749 12.9083 8.4472L11.8666 12.9986L7.35496 14.0494C4.92664 14.7489 5.17896 20.4885 9.72745 21.0866L13.1371 21.536C17.6856 22.134 20.9223 18.87 20.3283 14.2815L19.884 10.8406V10.8406ZM41.0891 32.2302C45.6375 32.8283 45.8887 38.5702 43.4615 39.2685L38.9499 40.3193L37.9071 44.8719C37.2149 47.3204 31.5243 47.0659 30.9314 42.4773L30.4871 39.0365C29.8942 34.4479 33.1297 31.1828 37.6782 31.782L41.0891 32.2302Z" fill="#C3B214"/>
<path d="M39.0783 31.9656L37.6783 31.7809C33.1298 31.1828 29.8932 34.4469 30.4871 39.0354L30.5843 39.7867C32.3952 39.4848 34.4361 38.3946 36.1822 36.633C37.6225 35.1823 38.6072 33.5267 39.0783 31.9656V31.9656ZM12.7476 21.4842L13.1372 21.5361C17.6857 22.1341 20.9223 18.8701 20.3284 14.2815L20.1955 13.2566C18.7251 13.76 17.1844 14.7253 15.8245 16.0983C14.161 17.7753 13.1037 19.7238 12.7476 21.4842V21.4842Z" fill="#C3B214"/>
<path d="M26.0034 38.363C32.5709 38.363 37.8949 32.9921 37.8949 26.3667C37.8949 19.7414 32.5709 14.3705 26.0034 14.3705C19.4359 14.3705 14.1119 19.7414 14.1119 26.3667C14.1119 32.9921 19.4359 38.363 26.0034 38.363Z" fill="#C3B214"/>
<path d="M25.9709 26.003C26.4064 29.3177 25.2653 33.5943 23.0759 36.2434C24.0138 36.525 24.9963 36.6725 26.0022 36.6725C26.8183 36.6725 27.6177 36.5655 28.3914 36.3785C29.02 33.4659 28.6773 29.7029 25.9709 26.003ZM25.9709 26.003C29.7747 26.7182 32.9288 29.7041 33.5395 33.306C35.0128 31.6921 35.9316 29.6424 36.1598 27.4605C34.0821 25.3329 30.6869 23.8473 25.9709 26.003ZM25.9709 26.003C27.1421 23.4474 31.0051 21.1171 34.7196 21.0045C34.2993 20.3048 33.7982 19.658 33.2269 19.0774C32.3936 18.2405 31.4223 17.5564 30.3564 17.0557C27.707 18.4534 25.3859 21.1633 25.9709 26.003V26.003Z" fill="#0E0D0F"/>
<path d="M26.0178 26.0502C22.8806 24.3822 20.9078 20.3737 21.7563 17.0049C20.6485 17.5098 19.6399 18.2118 18.7787 19.0773C18.1673 19.6988 17.6375 20.3968 17.2022 21.1542C18.6391 23.3606 21.3934 25.4668 26.0178 26.0502ZM25.9241 26.0502C23.0547 27.8039 18.9673 28.7432 15.9227 27.9458C16.1889 29.7223 16.9153 31.3965 18.0284 32.799C20.6789 31.9994 23.6833 29.9799 25.9241 26.0502Z" fill="#0E0D0F"/>
<path d="M60.3641 11.1848C63.6389 10.7543 63.8197 6.62293 62.0718 6.11948L58.8244 5.36309L58.0746 2.087C57.5755 0.323703 53.4802 0.506924 53.0535 3.80976L52.7328 6.28568C52.3061 9.58852 54.635 11.9388 57.909 11.5075L60.3641 11.1848V11.1848ZM45.1023 26.5827C44.6756 29.8855 40.5787 30.0679 40.0804 28.3054L39.3307 25.0293L36.0824 24.2721C34.3353 23.7695 34.5169 19.6373 37.7909 19.2068L40.246 18.8841C43.52 18.4536 45.8497 20.8031 45.4222 24.1059L45.1023 26.5827Z" fill="#C3B214" fill-opacity="0.74"/>
<path d="M45.2911 25.1226L45.4229 24.106C45.8497 20.8032 43.5207 18.4529 40.2467 18.8842L39.7107 18.9547C39.9261 20.2697 40.704 21.7517 41.9609 23.0196C42.996 24.0655 44.1773 24.7805 45.2911 25.1226V25.1226ZM52.7697 6.00281L52.7328 6.28575C52.306 9.58858 54.635 11.9388 57.909 11.5075L58.6403 11.4111C58.281 10.3434 57.5923 9.22458 56.6127 8.23713C55.4161 7.02917 54.0258 6.26142 52.7697 6.00281V6.00281Z" fill="#C3B214" fill-opacity="0.74"/>
<path d="M40.7265 15.6284C40.7265 20.3973 44.5587 24.2633 49.286 24.2633C54.0132 24.2633 57.8455 20.3973 57.8455 15.6284C57.8455 10.8595 54.0132 6.99353 49.286 6.99353C44.5587 6.99353 40.7265 10.8595 40.7265 15.6284Z" fill="#C3B214" fill-opacity="0.74"/>
<path d="M49.5456 15.6047C47.1805 15.9209 44.1292 15.0924 42.239 13.5026C42.0381 14.1836 41.9328 14.897 41.9328 15.6274C41.9328 16.2201 42.0092 16.8005 42.1426 17.3624C44.2208 17.8188 46.9057 17.5699 49.5456 15.6047ZM49.5456 15.6047C49.0353 18.3668 46.9049 20.6571 44.3349 21.1006C45.4864 22.1704 46.9489 22.8376 48.5057 23.0033C50.0238 21.4946 51.0838 19.0292 49.5456 15.6047ZM49.5456 15.6047C51.3691 16.4552 53.0318 19.2602 53.1122 21.9575C53.6114 21.6523 54.0729 21.2884 54.4872 20.8736C55.0843 20.2685 55.5724 19.5632 55.9297 18.7892C54.9324 16.8654 52.9988 15.1799 49.5456 15.6047V15.6047Z" fill="#0E0D0F"/>
<path d="M49.5119 15.6389C50.702 13.3608 53.5622 11.9283 55.9658 12.5444C55.6055 11.74 55.1047 11.0076 54.4871 10.3823C54.0437 9.93838 53.5457 9.55367 53.0052 9.23755C51.4309 10.2809 49.9281 12.281 49.5119 15.6389ZM49.5119 15.5708C48.2606 13.4873 47.5904 10.5193 48.1593 8.30847C46.8918 8.50178 45.6972 9.02922 44.6965 9.83747C45.2671 11.7621 46.708 13.9437 49.5119 15.5708Z" fill="#0E0D0F"/>
</svg>
