<svg width="101" height="80" viewBox="0 0 101 80" fill="none" xmlns="http://www.w3.org/2000/svg">
<path d="M83.7895 58.8805C82.9259 56.7721 80.5153 55.7629 78.4146 56.6427L76.1335 57.6L72.1374 47.1355C77.074 43.6059 78.8271 36.7642 75.6952 31.3301L66.7626 15.7523C65.9377 14.3167 64.2773 13.7081 62.7305 14.3426L50.9537 19.2457L39.0748 14.2501C37.5279 13.6161 35.7748 14.2242 34.9498 15.6603L26.0141 31.2339C22.8946 36.668 24.6354 43.427 29.5668 47.0394L25.5707 57.5867L23.2947 56.6344C21.1941 55.7547 18.7965 56.7638 17.9199 58.8722C17.7394 59.2991 17.9328 59.7778 18.3582 59.959L35.1055 66.9323C35.4252 67.1134 35.9949 66.9193 36.1749 66.4925C37.0385 64.384 36.046 61.9516 33.9454 61.0718L31.6643 60.1274L35.7243 49.4042C36.1884 49.4559 36.6394 49.5335 37.0773 49.5335C42.414 49.5335 47.3247 46.211 48.7716 40.7107L50.8598 32.9104L52.9481 40.7107C54.299 46.1178 59.3026 49.5335 64.6424 49.5335C65.0807 49.5335 65.5317 49.4559 65.9954 49.4042L70.043 60.1274L67.7619 61.0718C65.6612 61.9515 64.6558 64.2909 65.5323 66.4925C65.7128 66.9193 66.2026 67.1134 66.6151 66.9323L83.3625 59.959C83.7585 59.7706 83.9648 59.3049 83.7895 58.8805V58.8805ZM46.3038 30.7785L34.7436 25.9654L38.5076 19.4062L48.2529 23.4606L46.3038 30.7785V30.7785ZM55.3994 30.7785L53.4534 23.4564L63.1976 19.4073L66.9616 25.9665L55.3994 30.7785V30.7785Z" fill="#C3B214"/>
</svg>
