<svg width="45" height="55" fill="none" xmlns="http://www.w3.org/2000/svg"><path d="M3.834 2.772A5.468 5.468 0 0 1 5.824.744 5.385 5.385 0 0 1 8.551 0h27.901c.959 0 1.9.257 2.728.744a5.469 5.469 0 0 1 1.99 2.028l3.106 5.5c1.76 3.118.133 6.883-2.962 7.94.013.225.01.45-.006.678l-2.328 33a5.527 5.527 0 0 1-1.717 3.635A5.4 5.4 0 0 1 33.559 55H11.443a5.4 5.4 0 0 1-3.705-1.475 5.527 5.527 0 0 1-1.717-3.634l-2.328-33a5.63 5.63 0 0 1-.008-.68c-3.093-1.056-4.72-4.82-2.962-7.939l3.108-5.5h.003zM9.116 16.5l.582 8.25h25.608l.581-8.25H9.117zm1.748 24.75.581 8.25H33.56l.581-8.25H10.864zM39.558 11l-3.105-5.5H8.55L5.445 11h34.113z" fill="#C3B214"/></svg>