<svg width="286" height="31" fill="none" xmlns="http://www.w3.org/2000/svg"><path d="M6.205 15.461c2.24 0 4.585-.16 6.824-.322.96 0 1.813-.16 2.773-.16l12.155-.967c4.905-.322 9.704-.805 14.609-1.127 6.93-.645 13.861-1.128 20.792-1.772 1.6-.161 3.2-.161 4.799-.322 4.052-.322 8.103-.644 12.155-.805 4.052-.323 8.104-.645 12.156-.806 1.6-.16 3.199-.322 4.798-.322 6.398-.322 12.903-.644 19.3-.966 3.946-.161 7.891-.322 11.943-.644 1.599 0 3.092-.161 4.691-.161 6.185-.162 12.476-.323 18.661-.484 6.184-.16 12.262-.322 18.446-.483h16.954c6.292 0 12.476 0 18.767-.16h19.94c-9.597.16-19.3.321-28.897.643-4.052.161-7.997.161-12.049.322-1.706 0-3.519 0-5.225.162-5.864.16-11.622.483-17.487.644-6.717.322-13.435.483-20.153.805-1.173 0-2.239.161-3.412.161-3.625.322-7.144.483-10.769.805l-21.753 1.45c-1.066 0-2.132.16-3.199.322-3.518.322-7.144.805-10.662 1.127-6.398.645-12.69 1.289-19.087 1.933-1.706.161-3.519.483-5.225.644-4.052.483-8.104.967-12.156 1.61-5.118.645-10.343 1.29-15.46 1.934-7.145.966-14.396 1.932-21.54 2.899-1.706.16-3.412.483-5.225.644l-9.277 1.45c-.32 0-.64.321-.64.966 0 .483.32.966.64.966 1.173 0 2.24.161 3.413.161-.214.805-.32 1.288-.32 1.772 0 1.771.96 3.382 2.239 3.382 8.85-.805 17.594-1.772 26.444-2.416 7.677-.483 15.355-1.127 23.032-1.61 8.424-.645 16.954-1.289 25.378-1.772 2.665-.161 5.331-.322 7.997-.644.746 0 1.493-.161 2.346-.161 13.648-.484 27.297-1.128 40.945-1.611 7.251-.322 14.608-.644 21.859-.805 2.666-.161 5.225-.161 7.891-.322l41.905-.967 17.914-.483c5.118-.161 10.236-.161 15.354-.483 4.265-.161 8.424-.483 12.689-.644 2.133-.161 4.265-.161 6.291-.322l14.395-1.45c-.32.644-.32 1.61-.213 2.255.107.805.426 1.45.96 1.771.426.323 1.066.645 1.492.323 1.067-.645 2.133-1.289 3.093-1.933h-.107c.107 0 .107-.161.213-.161.107 0 .214-.161.214-.161h-.107a18.418 18.418 0 0 0 1.706-1.128c.533-.322 1.173-.805 1.706-1.127.64-.483 1.173-.966 1.813-1.45.639-.483 1.066-1.771 1.066-2.899 0-.644-.107-1.127-.32-1.771-.213-.644-.746-1.45-1.279-1.61-.534-.162-1.067-.323-1.6-.323h-.32c-.32 0-.746 0-1.066.161-.853.161-1.599.322-2.453.322-.639 0-1.279.161-2.025.161-1.813.161-3.519.322-5.332.645-.426 0-.96.16-1.386.16.213-.321.32-.644.32-.966.106-.322.106-.644.106-.966 0-.161 0-.483.107-.644 0-.322 0-.644-.107-.806 0 0 .107 0 .107-.16.32-.323.64-.645.853-1.29.213-.482.32-1.126.32-1.77 0-.645-.107-1.128-.32-1.772-.107-.161-.213-.483-.32-.645-.32-.483-.64-.644-.959-.805A4.786 4.786 0 0 0 268.193 0h-34.868c-10.983 0-21.859.161-32.842.322-8.21.161-16.42.322-24.631.322-3.625 0-7.357.161-10.983.322-8.21.322-16.421.484-24.631.806-2.346 0-4.692.16-7.038.16-1.386 0-2.665.162-4.051.162l-24.312 1.45c-2.452.16-4.905.321-7.464.482-1.386 0-2.772.161-4.159.323-8.103.644-16.1 1.288-24.204 1.932-4.159.322-8.317.644-12.476 1.128-7.144.644-14.288 1.288-21.326 2.093-6.184.645-12.369 1.128-18.553 1.61-.96.162-1.92.162-2.986.323-1.6.161-3.199.161-4.798.322-1.386.644-2.88.644-4.265.644-.107-.644-.533-1.127-.853-.966-.96 0-1.813.161-2.773.322-.426.161-.853.483-.96 1.128-.106.805.214 1.61.64 1.771l1.28.483c.427.161.746.161 1.173.161 1.066.161 2.026.161 3.092.161zm249.512-5.153h3.946c.106.483.319.805.533 1.127-.533 0-1.067.161-1.493.161-.96 0-1.919.161-2.879.161-4.265.161-8.424.483-12.689.644-1.919.162-3.839.322-5.758.322-2.985 0-6.078.162-9.063.162-6.931.16-13.756.322-20.686.483l-40.2.966c-9.596.161-19.193.644-28.789 1.127-14.395.645-28.897 1.128-43.292 1.772-2.879.161-5.758.322-8.637.644-8.21.645-16.42 1.128-24.631 1.772-7.997.644-16.101 1.127-24.098 1.772-.747 0-1.493.16-2.24.16 2.133-.322 4.372-.482 6.505-.805 7.57-.805 15.141-1.771 22.712-2.576 2.666-.323 5.331-.645 7.89-.967 1.386-.16 2.773-.322 4.052-.322 7.997-.644 15.888-1.45 23.779-2.094 1.492-.16 3.092-.322 4.585-.483 2.239-.161 4.478-.322 6.611-.322l24.311-1.45c1.813-.16 3.625-.16 5.332-.322h1.386c1.279 0 2.559 0 3.732-.16 8.104-.323 16.314-.484 24.418-.806 3.732-.161 7.464-.322 11.196-.322l36.254-.483c12.582 0 24.951-.161 37.213-.161z" fill="#C3B214"/></svg>